# Blender v2.79 (sub 0) OBJ File: 'dp10-arrows.blend'
# www.blender.org
mtllib dp10-arrows.mtl
o Plane.003_Plane.012
v -3.872844 0.373333 -27.536930
v -3.714307 0.373342 -1.827684
v -2.578811 0.373402 -27.544910
v -2.420274 0.373410 -1.835664
v -3.349305 0.373361 -47.181393
v -3.337737 0.373362 -47.181461
v -4.962653 0.373275 -27.530210
v -3.359048 0.373360 -47.181332
v -1.475197 0.373461 -27.551716
v -3.327871 0.373362 -47.181522
v -3.856094 0.003339 -27.666311
v -3.697557 0.003348 -1.957063
v -2.562061 0.003408 -27.674292
v -2.403524 0.003417 -1.965043
v -3.332555 0.003367 -47.310772
v -3.320987 0.003368 -47.310844
v -4.945903 0.003281 -27.659592
v -3.342298 0.003367 -47.310711
v -1.458446 0.003467 -27.681097
v -3.311121 0.003368 -47.310905
vn -0.3980 0.8587 0.3227
vn -0.5701 0.4696 0.6741
vn 0.5531 0.4879 0.6753
vn 0.3890 0.8742 0.2905
vn 0.5773 0.4869 0.6555
vn 0.5443 0.6782 -0.4938
vn -0.0036 0.8154 -0.5789
vn -0.0038 0.8154 -0.5789
vn -0.5836 0.6499 -0.4869
vn -0.5946 0.4679 0.6538
vn -0.2185 -0.9410 0.2584
vn 0.2242 -0.9353 0.2736
vn 0.6163 -0.6390 0.4602
vn -0.5775 -0.6687 0.4684
vn -0.6093 -0.6591 0.4408
vn -0.5286 -0.4892 -0.6937
vn -0.0053 -0.5788 -0.8154
vn -0.0050 -0.5788 -0.8155
vn 0.5445 -0.4717 -0.6935
vn 0.6477 -0.6281 0.4313
usemtl Material.034
s 1
f 1//1 2//2 4//3 3//4
f 1//1 3//4 9//5 10//6 6//7 5//8 8//9 7//10
f 11//11 13//12 14//13 12//14
f 11//11 17//15 18//16 15//17 16//18 20//19 19//20 13//12
f 1//1 11//11 12//14 2//2
f 2//2 12//14 14//13 4//3
f 4//3 14//13 13//12 3//4
f 6//7 16//18 15//17 5//8
f 8//9 18//16 17//15 7//10
f 5//8 15//17 18//16 8//9
f 7//10 17//15 11//11 1//1
f 9//5 19//20 20//19 10//6
f 3//4 13//12 19//20 9//5
f 10//6 20//19 16//18 6//7
o Plane.005_Plane.011
v 32.271225 0.375256 -9.583820
v 5.873557 0.373851 -9.360895
v 32.292305 0.375258 -8.289935
v 6.253268 0.373871 -8.123799
v 51.919975 0.376303 -9.259158
v 51.920162 0.376303 -9.247591
v 32.253471 0.375256 -10.673506
v 51.919815 0.376303 -9.268900
v 32.310280 0.375259 -7.186445
v 51.920322 0.376303 -9.237726
v 32.400787 0.005269 -9.568400
v 6.002303 0.003863 -9.382071
v 32.421867 0.005270 -8.274514
v 6.382013 0.003884 -8.144976
v 52.049541 0.006315 -9.243738
v 52.049728 0.006315 -9.232171
v 32.383034 0.005268 -10.658085
v 52.049381 0.006315 -9.253480
v 32.439842 0.005271 -7.171025
v 52.049889 0.006315 -9.222306
v 3.725259 0.373737 -7.719209
v 4.104970 0.373757 -6.482114
v 3.854005 0.003749 -7.740385
v 4.233716 0.003769 -6.503289
v 4.266685 0.003771 -1.157108
v 3.886975 0.003751 -2.394204
v 4.137939 0.373759 -1.135932
v 3.758229 0.373739 -2.373027
vn -0.3175 0.8652 -0.3880
vn -0.3084 0.6005 -0.7378
vn 0.2241 0.8130 0.5374
vn -0.2962 0.8674 0.3999
vn -0.6496 0.4868 0.5839
vn 0.4992 0.6782 0.5393
vn 0.5788 0.8154 -0.0094
vn 0.4810 0.6500 -0.5883
vn -0.6598 0.4679 -0.5879
vn -0.2612 -0.9403 -0.2182
vn -0.2710 -0.9359 0.2249
vn 0.1652 -0.7671 0.6200
vn -0.1925 -0.6676 -0.7192
vn -0.4469 -0.6590 -0.6048
vn 0.6885 -0.4893 -0.5353
vn 0.8154 -0.5788 -0.0133
vn 0.8154 -0.5787 -0.0132
vn 0.6990 -0.4717 0.5375
vn -0.4247 -0.6281 0.6520
vn -0.7909 0.5083 -0.3406
vn 0.4235 0.8873 0.1824
vn -0.0464 0.5069 0.8607
vn 0.3025 -0.5093 0.8056
vn 0.5817 -0.7427 0.3316
vn -0.6056 -0.7169 -0.3453
vn -0.8290 0.5445 0.1272
vn -0.6042 -0.7914 0.0923
usemtl Material.030
s 1
f 21//21 22//22 24//23 23//24
f 21//21 23//24 29//25 30//26 26//27 25//27 28//28 27//29
f 31//30 33//31 34//32 32//33
f 31//30 37//34 38//35 35//36 36//37 40//38 39//39 33//31
f 21//21 31//30 32//33 22//22
f 22//22 41//40 42//41 24//23
f 24//23 34//32 33//31 23//24
f 26//27 36//37 35//36 25//27
f 28//28 38//35 37//34 27//29
f 25//27 35//36 38//35 28//28
f 27//29 37//34 31//30 21//21
f 29//25 39//39 40//38 30//26
f 23//24 33//31 39//39 29//25
f 30//26 40//38 36//37 26//27
f 42//41 47//42 45//43 44//44
f 34//32 44//44 43//45 32//33
f 24//23 42//41 44//44 34//32
f 32//33 43//45 41//40 22//22
f 41//40 48//46 47//42 42//41
f 47//42 48//46 46//47 45//43
f 43//45 46//47 48//46 41//40
f 44//44 45//43 46//47 43//45
