# Blender v2.79 (sub 0) OBJ File: 'dp3-arrows.blend'
# www.blender.org
mtllib dp3-arrows.mtl
o Plane.003_Plane.012
v 0.531122 0.516664 -19.065847
v 0.416508 0.516658 -0.479429
v -0.404395 0.516614 -19.071615
v -0.519009 0.516608 -0.485198
v 0.152630 0.516644 -33.267746
v 0.144267 0.516643 -33.267796
v 1.318995 0.516706 -19.060989
v 0.159674 0.516644 -33.267700
v -1.202250 0.516572 -19.076536
v 0.137135 0.516643 -33.267841
v 0.519012 0.784150 -19.159384
v 0.404399 0.784144 -0.572963
v -0.416505 0.784100 -19.165152
v -0.531119 0.784094 -0.578732
v 0.140521 0.784130 -33.361279
v 0.132158 0.784129 -33.361332
v 1.306886 0.784192 -19.154526
v 0.147564 0.784130 -33.361237
v -1.214360 0.784057 -19.170073
v 0.125025 0.784129 -33.361374
vn 0.3980 -0.8587 0.3227
vn 0.5701 -0.4696 0.6741
vn -0.5531 -0.4879 0.6753
vn -0.3890 -0.8742 0.2905
vn -0.5773 -0.4869 0.6555
vn -0.5444 -0.6781 -0.4938
vn 0.0035 -0.8154 -0.5789
vn 0.0038 -0.8154 -0.5789
vn 0.5836 -0.6499 -0.4868
vn 0.5946 -0.4679 0.6538
vn 0.2185 0.9410 0.2584
vn -0.2242 0.9353 0.2736
vn -0.6163 0.6390 0.4602
vn 0.5775 0.6687 0.4684
vn 0.6093 0.6591 0.4408
vn 0.5287 0.4891 -0.6937
vn 0.0052 0.5787 -0.8155
vn 0.0048 0.5788 -0.8154
vn -0.5446 0.4718 -0.6934
vn -0.6477 0.6281 0.4313
usemtl Material.034
s 1
f 1//1 2//2 4//3 3//4
f 1//1 3//4 9//5 10//6 6//7 5//8 8//9 7//10
f 11//11 13//12 14//13 12//14
f 11//11 17//15 18//16 15//17 16//18 20//19 19//20 13//12
f 1//1 11//11 12//14 2//2
f 2//2 12//14 14//13 4//3
f 4//3 14//13 13//12 3//4
f 6//7 16//18 15//17 5//8
f 8//9 18//16 17//15 7//10
f 5//8 15//17 18//16 8//9
f 7//10 17//15 11//11 1//1
f 9//5 19//20 20//19 10//6
f 3//4 13//12 19//20 9//5
f 10//6 20//19 16//18 6//7
o Plane.005_Plane.011
v -3.877664 0.396251 -23.978342
v -8.628769 0.395609 -12.933601
v -3.340563 0.396252 -23.752218
v -8.049276 0.395618 -12.867290
v -0.139059 0.396730 -32.110275
v -0.134258 0.396730 -32.108253
v -4.330000 0.396250 -24.168777
v -0.143103 0.396729 -32.111980
v -2.882499 0.396253 -23.559368
v -0.130161 0.396730 -32.106533
v -3.847537 0.125554 -24.029556
v -8.613874 0.124911 -12.991118
v -3.310436 0.125555 -23.803432
v -8.034382 0.124921 -12.924807
v -0.108932 0.126032 -32.161491
v -0.104131 0.126032 -32.159470
v -4.299871 0.125553 -24.219994
v -0.112975 0.126032 -32.163193
v -2.852369 0.125556 -23.610584
v -0.100035 0.126032 -32.157745
v -8.346332 0.395557 -11.739995
v -7.766840 0.395566 -11.673683
v -8.331436 0.124860 -11.797514
v -7.751945 0.124869 -11.731201
v -7.751945 0.124869 -11.731201
v -8.331436 0.124860 -11.797514
v -7.766840 0.395566 -11.673683
v -8.346332 0.395557 -11.739995
v -2.665388 0.124869 -2.966677
v -3.244880 0.124860 -3.032988
v -2.680285 0.395566 -2.909157
v -3.259776 0.395557 -2.975469
v -2.680285 0.395566 -2.909157
v -2.665388 0.124869 -2.966677
v -3.259776 0.395557 -2.975469
v -3.244880 0.124860 -3.032988
v -1.406316 0.395566 -0.907207
v -1.391421 0.124869 -0.964727
v -1.985807 0.395557 -0.973519
v -1.970912 0.124860 -1.031039
vn -0.4508 0.8803 0.1473
vn -0.7847 0.6188 -0.0355
vn 0.5975 0.8013 0.0276
vn 0.2123 0.8808 0.4233
vn 0.2960 0.5212 0.8004
vn 0.7120 0.6450 -0.2774
vn 0.2432 0.7786 -0.5784
vn 0.2437 0.7786 -0.5782
vn -0.3179 0.6284 -0.7100
vn -0.7929 0.5079 0.3366
vn -0.3368 -0.9284 0.1568
vn 0.1169 -0.9245 0.3627
vn 0.6294 -0.7726 0.0832
vn -0.7447 -0.6602 -0.0977
vn -0.7480 -0.6303 0.2077
vn -0.2335 -0.5257 -0.8180
vn 0.3024 -0.6274 -0.7176
vn 0.3018 -0.6274 -0.7178
vn 0.7617 -0.5134 -0.3951
vn 0.3933 -0.6122 0.6859
vn -0.3250 0.4321 0.8412
vn 0.3917 0.4003 0.8284
vn -0.3417 0.1549 0.9269
vn -0.2694 0.4434 0.8548
vn 0.4101 0.3882 0.8253
vn 0.4008 0.6727 0.6219
vn 0.5029 -0.3082 0.8075
vn -0.3825 -0.4703 0.7953
vn 0.3590 -0.5909 0.7224
vn -0.2891 -0.2737 0.9173
vn -0.3295 0.1423 0.9333
vn 0.3909 0.6896 0.6096
vn -0.2991 -0.5021 0.8114
vn 0.5261 -0.2385 0.8162
vn 0.3543 -0.6051 0.7129
vn 0.7497 -0.5626 0.3485
vn -0.3917 -0.6974 0.6001
vn -0.2809 -0.2642 0.9226
vn 0.6712 0.5164 0.5318
vn -0.4337 0.5427 0.7192
usemtl Material.030
s 1
f 21//21 22//22 24//23 23//24
f 21//21 23//24 29//25 30//26 26//27 25//28 28//29 27//30
f 31//31 33//32 34//33 32//34
f 31//31 37//35 38//36 35//37 36//38 40//39 39//40 33//32
f 21//21 31//31 32//34 22//22
f 22//22 41//41 42//42 24//23
f 24//23 34//33 33//32 23//24
f 26//27 36//38 35//37 25//28
f 28//29 38//36 37//35 27//30
f 25//28 35//37 38//36 28//29
f 27//30 37//35 31//31 21//21
f 29//25 39//40 40//39 30//26
f 23//24 33//32 39//40 29//25
f 30//26 40//39 36//38 26//27
f 48//43 52//44 51//45 47//46
f 34//33 44//47 43//48 32//34
f 24//23 42//42 44//47 34//33
f 32//34 43//48 41//41 22//22
f 44//47 45//49 46//50 43//48
f 43//48 46//50 48//43 41//41
f 41//41 48//43 47//46 42//42
f 42//42 47//46 45//49 44//47
f 52//44 55//51 53//52 51//45
f 46//50 50//53 52//44 48//43
f 45//49 49//54 50//53 46//50
f 47//46 51//45 49//54 45//49
f 54//55 58//56 60//57 56//58
f 50//53 56//58 55//51 52//44
f 49//54 54//55 56//58 50//53
f 51//45 53//52 54//55 49//54
f 57//59 59//60 60//57 58//56
f 53//52 57//59 58//56 54//55
f 55//51 59//60 57//59 53//52
f 56//58 60//57 59//60 55//51
