# Blender v2.79 (sub 0) OBJ File: 'dp38-arrows.blend'
# www.blender.org
mtllib dp38-arrows.mtl
o Plane.000
v 13.258733 0.310116 30.882448
v 11.503433 0.310547 4.252511
v 12.704325 0.310145 30.920847
v 10.995963 0.310568 4.651987
v 14.354554 0.309807 50.710587
v 14.349598 0.309807 50.710930
v 13.725644 0.310093 30.850109
v 14.358728 0.309807 50.710297
v 12.231499 0.310169 30.953596
v 14.345371 0.309807 50.711224
v 13.260235 -0.059880 31.013348
v 11.520601 -0.059450 4.382099
v 12.705827 -0.059852 31.051746
v 11.013132 -0.059429 4.781575
v 14.356056 -0.060190 50.841484
v 14.351100 -0.060189 50.841827
v 13.727146 -0.059904 30.981009
v 14.360229 -0.060190 50.841194
v 12.233002 -0.059828 31.084496
v 14.346872 -0.060189 50.842117
v 10.663260 0.310618 2.106809
v 10.155790 0.310639 2.506285
v 10.680428 -0.059379 2.236397
v 10.172958 -0.059358 2.635873
v 4.105214 -0.059034 1.849528
v 6.206484 -0.059140 1.619098
v 4.088045 0.310963 1.719940
v 4.595515 0.310942 1.320464
vn 0.3724 0.8656 -0.3348
vn 0.7319 0.6547 -0.1886
vn -0.6300 0.7594 0.1621
vn -0.4154 0.8665 -0.2765
vn -0.6114 0.4812 -0.6282
vn -0.5419 0.6654 0.5134
vn 0.0398 0.8164 0.5761
vn 0.0397 0.8164 0.5761
vn 0.6218 0.6529 0.4325
vn 0.5301 0.4732 -0.7036
vn 0.2024 -0.9394 -0.2766
vn -0.2384 -0.9375 -0.2534
vn -0.6687 -0.7328 0.1256
vn 0.7149 -0.6861 -0.1347
vn 0.5712 -0.6568 -0.4922
vn 0.5915 -0.4824 0.6460
vn 0.0561 -0.5774 0.8145
vn 0.0562 -0.5774 0.8145
vn -0.5076 -0.4748 0.7189
vn -0.6478 -0.6438 -0.4073
vn 0.4733 0.5271 -0.7057
vn -0.2496 0.8948 0.3701
vn -0.8837 -0.0034 0.4680
vn -0.4125 -0.7828 0.4658
vn -0.4255 -0.7816 0.4561
vn 0.5000 -0.6778 -0.5391
vn -0.1794 0.3333 -0.9256
vn 0.0625 -0.7933 -0.6056
usemtl Material.030
s 1
f 1//1 2//2 4//3 3//4
f 1//1 3//4 9//5 10//6 6//7 5//8 8//9 7//10
f 11//11 13//12 14//13 12//14
f 11//11 17//15 18//16 15//17 16//18 20//19 19//20 13//12
f 1//1 11//11 12//14 2//2
f 2//2 21//21 22//22 4//3
f 4//3 14//13 13//12 3//4
f 6//7 16//18 15//17 5//8
f 8//9 18//16 17//15 7//10
f 5//8 15//17 18//16 8//9
f 7//10 17//15 11//11 1//1
f 9//5 19//20 20//19 10//6
f 3//4 13//12 19//20 9//5
f 10//6 20//19 16//18 6//7
f 22//22 27//23 25//24 24//25
f 14//13 24//25 23//26 12//14
f 4//3 22//22 24//25 14//13
f 12//14 23//26 21//21 2//2
f 21//21 28//27 27//23 22//22
f 27//23 28//27 26//28 25//24
f 23//26 26//28 28//27 21//21
f 24//25 25//24 26//28 23//26
o Plane.005_Plane.011
v 30.625307 0.539347 -22.565605
v 11.842083 0.539347 -4.016291
v 29.723272 0.539347 -23.493462
v 11.233330 0.539347 -5.158222
v 44.258690 0.539347 -36.718689
v 44.250626 0.539347 -36.726982
v 31.384983 0.539346 -21.784184
v 44.265480 0.539347 -36.711700
v 28.953972 0.539348 -24.284782
v 44.243748 0.539347 -36.734055
v 30.705780 0.909341 -22.668285
v 11.947913 0.909341 -4.092571
v 29.803745 0.909342 -23.596142
v 11.339161 0.909342 -5.234502
v 44.339165 0.909342 -36.821365
v 44.331100 0.909342 -36.829662
v 31.465456 0.909341 -21.886864
v 44.345955 0.909342 -36.814381
v 29.034445 0.909343 -24.387465
v 44.324223 0.909342 -36.836735
v 11.239582 0.539347 -3.263250
v 10.009001 0.539348 -3.663567
v 11.262904 0.909342 -3.391604
v 10.032323 0.909343 -3.791921
v 4.687438 0.909346 -3.914168
v 5.918020 0.909345 -3.513851
v 4.664116 0.539351 -3.785814
v 5.894697 0.539350 -3.385496
vn 0.0510 -0.8653 0.4987
vn 0.5139 -0.7112 0.4796
vn -0.5218 -0.7063 -0.4783
vn -0.4923 -0.8674 -0.0723
vn -0.8721 -0.4868 0.0484
vn -0.0300 -0.6782 -0.7343
vn 0.4150 -0.8154 -0.4035
vn 0.4151 -0.8154 -0.4035
vn 0.7562 -0.6500 0.0742
vn -0.0489 -0.4679 0.8824
vn -0.0297 0.9403 0.3391
vn -0.3506 0.9359 0.0334
vn -0.5216 0.6955 -0.4941
vn 0.5041 0.7153 0.4839
vn 0.1133 0.6590 0.7435
vn 0.8652 0.4892 -0.1101
vn 0.5847 0.5788 -0.5684
vn 0.5846 0.5788 -0.5685
vn 0.1122 0.4717 -0.8745
vn -0.7617 0.6281 -0.1590
vn 0.3038 -0.5372 0.7868
vn -0.1757 -0.8773 -0.4465
vn -0.8614 -0.5069 0.0320
vn -0.8004 0.5094 -0.3159
vn -0.3030 0.7530 -0.5840
vn 0.3236 0.6995 0.6372
vn -0.1411 -0.5446 0.8267
vn -0.1024 0.7914 0.6026
usemtl Material.031
s 1
f 29//29 30//30 32//31 31//32
f 29//29 31//32 37//33 38//34 34//35 33//36 36//37 35//38
f 39//39 41//40 42//41 40//42
f 39//39 45//43 46//44 43//45 44//46 48//47 47//48 41//40
f 29//29 39//39 40//42 30//30
f 30//30 49//49 50//50 32//31
f 32//31 42//41 41//40 31//32
f 34//35 44//46 43//45 33//36
f 36//37 46//44 45//43 35//38
f 33//36 43//45 46//44 36//37
f 35//38 45//43 39//39 29//29
f 37//33 47//48 48//47 38//34
f 31//32 41//40 47//48 37//33
f 38//34 48//47 44//46 34//35
f 50//50 55//51 53//52 52//53
f 42//41 52//53 51//54 40//42
f 32//31 50//50 52//53 42//41
f 40//42 51//54 49//49 30//30
f 49//49 56//55 55//51 50//50
f 55//51 56//55 54//56 53//52
f 51//54 54//56 56//55 49//49
f 52//53 53//52 54//56 51//54
