# Blender v2.79 (sub 0) OBJ File: 'dp40-arrows.blend'
# www.blender.org
mtllib dp40-arrows.mtl
o Plane.003_Plane.012
v 33.187103 0.373605 -6.987215
v 7.589973 0.373619 -4.583585
v 33.308086 0.373606 -5.698825
v 7.710957 0.373620 -3.295195
v 52.802208 0.373594 -8.181618
v 52.803291 0.373594 -8.170100
v 33.085213 0.373604 -8.072271
v 52.801300 0.373594 -8.191319
v 33.411266 0.373607 -4.600024
v 52.804214 0.373594 -8.160277
v 33.317451 0.003610 -6.981850
v 7.720319 0.003625 -4.578219
v 33.438435 0.003611 -5.693460
v 7.841302 0.003626 -3.289829
v 52.932556 0.003599 -8.176252
v 52.933640 0.003600 -8.164734
v 33.215561 0.003609 -8.066906
v 52.931641 0.003599 -8.185952
v 33.541615 0.003612 -4.594658
v 52.934555 0.003600 -8.154911
vn -0.3562 0.8588 -0.3682
vn -0.7213 0.4696 -0.5090
vn -0.6243 0.4879 0.6100
vn -0.2554 0.8742 0.4129
vn -0.6026 0.4868 0.6323
vn 0.5394 0.6781 0.4992
vn 0.5763 0.8154 -0.0541
vn 0.5763 0.8154 -0.0542
vn 0.4342 0.6499 -0.6237
vn -0.7032 0.4679 -0.5352
vn -0.2765 -0.9410 -0.1951
vn -0.2530 -0.9353 0.2472
vn -0.4046 -0.6390 0.6541
vn -0.5170 -0.6686 -0.5344
vn -0.4924 -0.6590 -0.5685
vn 0.6450 -0.4894 -0.5868
vn 0.8118 -0.5789 -0.0763
vn 0.8119 -0.5787 -0.0762
vn 0.7383 -0.4718 0.4819
vn -0.3731 -0.6281 0.6828
usemtl Material.030
s 1
f 1//1 2//2 4//3 3//4
f 1//1 3//4 9//5 10//6 6//7 5//8 8//9 7//10
f 11//11 13//12 14//13 12//14
f 11//11 17//15 18//16 15//17 16//18 20//19 19//20 13//12
f 1//1 11//11 12//14 2//2
f 2//2 12//14 14//13 4//3
f 4//3 14//13 13//12 3//4
f 6//7 16//18 15//17 5//8
f 8//9 18//16 17//15 7//10
f 5//8 15//17 18//16 8//9
f 7//10 17//15 11//11 1//1
f 9//5 19//20 20//19 10//6
f 3//4 13//12 19//20 9//5
f 10//6 20//19 16//18 6//7
o Plane.005_Plane.011
v 33.410812 0.373630 -0.310679
v 7.012212 0.373619 -0.331405
v 33.419945 0.373631 0.983346
v 7.380488 0.373621 0.909142
v 53.055733 0.373638 0.195321
v 53.055809 0.373638 0.206889
v 33.403118 0.373628 -1.400481
v 53.055664 0.373638 0.185578
v 33.427738 0.373632 2.086954
v 53.055878 0.373638 0.216755
v 33.540207 0.003635 -0.294064
v 7.141128 0.003624 -0.351392
v 33.549343 0.003636 0.999962
v 7.509405 0.003626 0.889156
v 53.185127 0.003643 0.211936
v 53.185211 0.003643 0.223504
v 33.532516 0.003634 -1.383866
v 53.185059 0.003643 0.202194
v 33.557133 0.003638 2.103570
v 53.185280 0.003643 0.233370
vn -0.3138 0.8652 -0.3909
vn 0.0010 0.7214 -0.6925
vn -0.0020 0.8321 0.5545
vn -0.2998 0.8674 0.3971
vn -0.6550 0.4868 0.5779
vn 0.4942 0.6782 0.5439
vn 0.5788 0.8154 -0.0040
vn 0.5789 0.8154 -0.0040
vn 0.4865 0.6500 -0.5838
vn -0.6543 0.4679 -0.5940
vn -0.2592 -0.9403 -0.2206
vn -0.2731 -0.9359 0.2224
vn -0.0025 -0.7013 0.7128
vn 0.0012 -0.5547 -0.8320
vn -0.4414 -0.6590 -0.6089
vn 0.6934 -0.4893 -0.5289
vn 0.8155 -0.5788 -0.0057
vn 0.8155 -0.5788 -0.0056
vn 0.6940 -0.4718 0.5439
vn -0.4307 -0.6281 0.6480
usemtl Material.031
s 1
f 21//21 22//22 24//23 23//24
f 21//21 23//24 29//25 30//26 26//27 25//28 28//29 27//30
f 31//31 33//32 34//33 32//34
f 31//31 37//35 38//36 35//37 36//38 40//39 39//40 33//32
f 21//21 31//31 32//34 22//22
f 24//23 34//33 33//32 23//24
f 26//27 36//38 35//37 25//28
f 28//29 38//36 37//35 27//30
f 25//28 35//37 38//36 28//29
f 27//30 37//35 31//31 21//21
f 29//25 39//40 40//39 30//26
f 23//24 33//32 39//40 29//25
f 30//26 40//39 36//38 26//27
