# Blender v2.79 (sub 0) OBJ File: 'one-way.blend'
# www.blender.org
mtllib one-way.mtl
o Plane
v -1.002115 0.082614 0.367526
v 0.997885 0.082614 0.367526
v -1.002115 0.082614 -0.367526
v 0.997885 0.082614 -0.367526
v -2.530008 0.082614 0.001343
v -2.530008 0.082614 -0.005229
v -1.002115 0.082614 0.986571
v -2.530008 0.082614 0.006877
v -1.002115 0.082614 -0.994413
v -2.530008 0.082614 -0.010833
v 3.168817 -0.001757 -1.018394
v 2.933816 -0.001757 -0.835394
v 2.933816 -0.001757 -0.717394
v 3.254817 -0.001757 -0.970394
v 3.615817 -0.001757 -0.970394
v 3.615817 -0.001757 -1.068394
v 3.255816 -0.001757 -1.068394
v 2.933816 -0.001757 -1.321394
v 2.933816 -0.001757 -1.203394
v 2.929816 -0.001757 -0.412394
v 2.929816 -0.001757 -0.343394
v 3.615817 -0.001757 -0.050394
v 3.615817 -0.001757 -0.150394
v 3.414817 -0.001757 -0.236394
v 3.414817 -0.001757 -0.526394
v 3.615817 -0.001757 -0.617394
v 3.615817 -0.001757 -0.717394
v 3.079817 -0.001757 -0.376394
v 3.326817 -0.001757 -0.486394
v 3.326817 -0.001757 -0.274394
v 2.933816 -0.001757 -0.049394
v 2.933816 -0.001757 0.047606
v 3.403816 -0.001757 0.233606
v 2.933816 -0.001757 0.423606
v 2.933816 -0.001757 0.516606
v 3.403817 -0.001757 0.705606
v 2.933816 -0.001757 0.893606
v 2.933816 -0.001757 0.991606
v 3.621817 -0.001757 0.715606
v 3.621817 -0.001757 0.696606
v 3.063817 -0.001757 0.470606
v 3.621817 -0.001757 0.246606
v 3.621817 -0.001757 0.227606
v 1.933816 -0.001757 -1.074394
v 1.933816 -0.001757 -0.687394
v 2.615817 -0.001757 -0.687394
v 2.615817 -0.001757 -1.083394
v 2.527817 -0.001757 -1.083394
v 2.527817 -0.001757 -0.785394
v 2.315816 -0.001757 -0.785394
v 2.315816 -0.001757 -1.064394
v 2.227817 -0.001757 -1.064394
v 2.227817 -0.001757 -0.785394
v 2.021816 -0.001757 -0.785394
v 2.021816 -0.001757 -1.074394
v 1.933816 -0.001757 -0.537394
v 1.933816 -0.001757 -0.445394
v 2.461817 -0.001757 -0.445394
v 1.933816 -0.001757 0.016606
v 1.933816 -0.001757 0.094606
v 2.615817 -0.001757 0.094606
v 2.615817 -0.001757 0.002606
v 2.090816 -0.001757 0.002606
v 2.615817 -0.001757 -0.453394
v 2.615817 -0.001757 -0.537394
v 2.274817 -0.001757 0.946606
v 2.320566 -0.001757 0.943703
v 2.364979 -0.001757 0.935129
v 2.407551 -0.001757 0.921090
v 2.447780 -0.001757 0.901791
v 2.485161 -0.001757 0.877436
v 2.519192 -0.001757 0.848231
v 2.549368 -0.001757 0.814380
v 2.575187 -0.001757 0.776087
v 2.596145 -0.001757 0.733559
v 2.611738 -0.001757 0.686999
v 2.621463 -0.001757 0.636613
v 2.624817 -0.001757 0.582606
v 2.621444 -0.001757 0.526819
v 2.611668 -0.001757 0.475064
v 2.596004 -0.001757 0.427497
v 2.574965 -0.001757 0.384273
v 2.549064 -0.001757 0.345549
v 2.518816 -0.001757 0.311481
v 2.484735 -0.001757 0.282226
v 2.447335 -0.001757 0.257939
v 2.407129 -0.001757 0.238778
v 2.364631 -0.001757 0.224898
v 2.320356 -0.001757 0.216455
v 2.274817 -0.001757 0.213606
v 2.228017 -0.001757 0.216530
v 2.182918 -0.001757 0.225166
v 2.139973 -0.001757 0.239309
v 2.099631 -0.001757 0.258754
v 2.062346 -0.001757 0.283296
v 2.028567 -0.001757 0.312731
v 1.998746 -0.001757 0.346853
v 1.973335 -0.001757 0.385458
v 1.952785 -0.001757 0.428340
v 1.937548 -0.001757 0.475296
v 1.928075 -0.001757 0.526119
v 1.924817 -0.001757 0.580606
v 1.928094 -0.001757 0.634233
v 1.937618 -0.001757 0.684453
v 1.952926 -0.001757 0.731028
v 1.973557 -0.001757 0.773717
v 1.999050 -0.001757 0.812281
v 2.028942 -0.001757 0.846481
v 2.062771 -0.001757 0.876076
v 2.100076 -0.001757 0.900828
v 2.140395 -0.001757 0.920497
v 2.183266 -0.001757 0.934842
v 2.228227 -0.001757 0.943625
v 2.274817 -0.001757 0.845606
v 2.238190 -0.001757 0.843295
v 2.203474 -0.001757 0.836532
v 2.170910 -0.001757 0.825575
v 2.140743 -0.001757 0.810680
v 2.113214 -0.001757 0.792105
v 2.088567 -0.001757 0.770106
v 2.067045 -0.001757 0.744940
v 2.048891 -0.001757 0.716865
v 2.034348 -0.001757 0.686137
v 2.023659 -0.001757 0.653013
v 2.017068 -0.001757 0.617751
v 2.014817 -0.001757 0.580606
v 2.017068 -0.001757 0.543231
v 2.023659 -0.001757 0.507777
v 2.034348 -0.001757 0.474497
v 2.048891 -0.001757 0.443643
v 2.067044 -0.001757 0.415470
v 2.088567 -0.001757 0.390231
v 2.113214 -0.001757 0.368179
v 2.140743 -0.001757 0.349569
v 2.170910 -0.001757 0.334653
v 2.203474 -0.001757 0.323685
v 2.238190 -0.001757 0.316918
v 2.274817 -0.001757 0.314606
v 2.311233 -0.001757 0.316918
v 2.345812 -0.001757 0.323685
v 2.378301 -0.001757 0.334653
v 2.408446 -0.001757 0.349569
v 2.435994 -0.001757 0.368179
v 2.460691 -0.001757 0.390231
v 2.482285 -0.001757 0.415470
v 2.500520 -0.001757 0.443643
v 2.515145 -0.001757 0.474496
v 2.525904 -0.001757 0.507777
v 2.532546 -0.001757 0.543231
v 2.534817 -0.001757 0.580606
v 2.532546 -0.001757 0.617751
v 2.525905 -0.001757 0.653013
v 2.515145 -0.001757 0.686137
v 2.500520 -0.001757 0.716865
v 2.482285 -0.001757 0.744940
v 2.460691 -0.001757 0.770106
v 2.435994 -0.001757 0.792105
v 2.408446 -0.001757 0.810680
v 2.378301 -0.001757 0.825575
v 2.345812 -0.001757 0.836532
v 2.311233 -0.001757 0.843295
v -1.012172 0.112763 0.357569
v 0.987828 0.112763 0.357569
v -1.012172 0.112763 -0.377482
v 0.987828 0.112763 -0.377482
v -2.540064 0.112763 -0.008614
v -2.540064 0.112763 -0.015185
v -1.012172 0.112763 0.976614
v -2.540064 0.112763 -0.003080
v -1.012172 0.112763 -1.004369
v -2.540064 0.112763 -0.020789
v 3.158760 0.028392 -1.028351
v 2.923760 0.028392 -0.845351
v 2.923760 0.028392 -0.727350
v 3.244760 0.028392 -0.980350
v 3.605760 0.028392 -0.980350
v 3.605760 0.028392 -1.078351
v 3.245760 0.028392 -1.078351
v 2.923760 0.028392 -1.331351
v 2.923760 0.028392 -1.213351
v 2.919760 0.028392 -0.422350
v 2.919760 0.028392 -0.353350
v 3.605760 0.028392 -0.060350
v 3.605760 0.028392 -0.160350
v 3.404760 0.028392 -0.246350
v 3.404760 0.028392 -0.536351
v 3.605760 0.028392 -0.627351
v 3.605760 0.028392 -0.727350
v 3.069760 0.028392 -0.386350
v 3.316760 0.028392 -0.496351
v 3.316760 0.028392 -0.284350
v 2.923760 0.028392 -0.059350
v 2.923760 0.028392 0.037650
v 3.393760 0.028392 0.223650
v 2.923760 0.028392 0.413650
v 2.923760 0.028392 0.506650
v 3.393760 0.028392 0.695650
v 2.923760 0.028392 0.883650
v 2.923760 0.028392 0.981650
v 3.611760 0.028392 0.705650
v 3.611760 0.028392 0.686650
v 3.053760 0.028392 0.460650
v 3.611760 0.028392 0.236649
v 3.611760 0.028392 0.217649
v 1.923760 0.028392 -1.084350
v 1.923760 0.028392 -0.697351
v 2.605760 0.028392 -0.697351
v 2.605760 0.028392 -1.093351
v 2.517760 0.028392 -1.093351
v 2.517760 0.028392 -0.795350
v 2.305760 0.028392 -0.795350
v 2.305760 0.028392 -1.074351
v 2.217760 0.028392 -1.074351
v 2.217760 0.028392 -0.795350
v 2.011760 0.028392 -0.795350
v 2.011760 0.028392 -1.084350
v 1.923760 0.028392 -0.547351
v 1.923760 0.028392 -0.455350
v 2.451760 0.028392 -0.455350
v 1.923760 0.028392 0.006650
v 1.923760 0.028392 0.084650
v 2.605760 0.028392 0.084650
v 2.605760 0.028392 -0.007350
v 2.080760 0.028392 -0.007350
v 2.605760 0.028392 -0.463350
v 2.605760 0.028392 -0.547351
v 2.264760 0.028392 0.936650
v 2.310509 0.028392 0.933746
v 2.354922 0.028392 0.925173
v 2.397495 0.028392 0.911134
v 2.437723 0.028392 0.891835
v 2.475104 0.028392 0.867480
v 2.509135 0.028392 0.838275
v 2.539312 0.028392 0.804423
v 2.565130 0.028392 0.766131
v 2.586088 0.028392 0.723603
v 2.601681 0.028392 0.677043
v 2.611407 0.028392 0.626657
v 2.614760 0.028392 0.572650
v 2.611387 0.028392 0.516863
v 2.601612 0.028392 0.465108
v 2.585948 0.028392 0.417540
v 2.564908 0.028392 0.374316
v 2.539008 0.028392 0.335592
v 2.508760 0.028392 0.301525
v 2.474679 0.028392 0.272269
v 2.437279 0.028392 0.247983
v 2.397073 0.028392 0.228821
v 2.354575 0.028392 0.214941
v 2.310299 0.028392 0.206498
v 2.264760 0.028392 0.203650
v 2.217960 0.028392 0.206574
v 2.172862 0.028392 0.215210
v 2.129916 0.028392 0.229353
v 2.089575 0.028392 0.248798
v 2.052289 0.028392 0.273340
v 2.018510 0.028392 0.302775
v 1.988690 0.028392 0.336897
v 1.963279 0.028392 0.375501
v 1.942729 0.028392 0.418384
v 1.927492 0.028392 0.465339
v 1.918018 0.028392 0.516163
v 1.914760 0.028392 0.570650
v 1.918037 0.028392 0.624276
v 1.927561 0.028392 0.674497
v 1.942870 0.028392 0.721071
v 1.963501 0.028392 0.763761
v 1.988993 0.028392 0.802325
v 2.018885 0.028392 0.836525
v 2.052714 0.028392 0.866120
v 2.090019 0.028392 0.890872
v 2.130338 0.028392 0.910540
v 2.173209 0.028392 0.924886
v 2.218170 0.028392 0.933669
v 2.264760 0.028392 0.835650
v 2.228134 0.028392 0.833338
v 2.193418 0.028392 0.826576
v 2.160854 0.028392 0.815618
v 2.130686 0.028392 0.800724
v 2.103157 0.028392 0.782148
v 2.078510 0.028392 0.760150
v 2.056988 0.028392 0.734984
v 2.038834 0.028392 0.706909
v 2.024292 0.028392 0.676181
v 2.013603 0.028392 0.643057
v 2.007011 0.028392 0.607794
v 2.004760 0.028392 0.570650
v 2.007011 0.028392 0.533275
v 2.013603 0.028392 0.497821
v 2.024291 0.028392 0.464540
v 2.038834 0.028392 0.433687
v 2.056988 0.028392 0.405514
v 2.078510 0.028392 0.380275
v 2.103157 0.028392 0.358223
v 2.130686 0.028392 0.339613
v 2.160854 0.028392 0.324696
v 2.193418 0.028392 0.313728
v 2.228134 0.028392 0.306962
v 2.264760 0.028392 0.304650
v 2.301176 0.028392 0.306962
v 2.335755 0.028392 0.313728
v 2.368244 0.028392 0.324696
v 2.398390 0.028392 0.339612
v 2.425938 0.028392 0.358223
v 2.450635 0.028392 0.380275
v 2.472228 0.028392 0.405514
v 2.490464 0.028392 0.433687
v 2.505088 0.028392 0.464540
v 2.515848 0.028392 0.497821
v 2.522490 0.028392 0.533275
v 2.524760 0.028392 0.570650
v 2.522490 0.028392 0.607794
v 2.515848 0.028392 0.643057
v 2.505088 0.028392 0.676181
v 2.490464 0.028392 0.706909
v 2.472228 0.028392 0.734984
v 2.450635 0.028392 0.760150
v 2.425938 0.028392 0.782148
v 2.398390 0.028392 0.800724
v 2.368244 0.028392 0.815618
v 2.335755 0.028392 0.826575
v 2.301176 0.028392 0.833338
vn 0.0000 -1.0000 0.0000
vn 0.0000 1.0000 0.0000
vn 0.0000 0.3136 0.9496
vn 0.9486 0.3164 0.0000
vn 0.0000 -0.3136 -0.9496
vn -0.9486 -0.3164 0.0000
vn -0.5372 0.0975 0.8378
vn -0.4921 -0.4166 -0.7644
vn 0.3956 0.4043 0.8246
vn -0.6658 0.0242 0.7457
vn 0.9495 0.2575 -0.1793
vn -0.5570 -0.4220 -0.7153
vn 0.6892 0.4239 0.5877
vn -0.6582 0.0289 0.7523
vn -0.6873 -0.4240 -0.5898
vn 0.8276 0.0933 -0.5535
vn 0.9413 0.3327 0.0567
vn -0.0610 0.2946 0.9537
vn -0.8895 -0.1547 0.4299
vn -0.3133 0.2019 0.9279
vn 0.0598 0.3309 0.9418
vn -0.5950 -0.4240 -0.6828
vn -0.3722 -0.4006 -0.8372
vn 0.0602 -0.2949 -0.9536
vn -0.1855 0.2518 0.9498
vn 0.8195 0.4067 0.4038
vn 0.4252 -0.1528 -0.8921
vn -0.3619 0.1813 0.9144
vn 0.9526 0.2987 -0.0577
vn -0.7525 -0.0338 0.6577
vn 0.3777 0.4015 0.8343
vn 0.2944 0.3868 0.8739
vn -0.9412 -0.3329 -0.0575
vn -0.8255 -0.4051 -0.3929
vn -0.2886 -0.3857 -0.8763
vn 0.5422 -0.0949 -0.8349
vn -0.5964 -0.4240 -0.6816
vn -0.0605 0.2947 0.9537
vn 0.3876 -0.1699 -0.9060
vn -0.7588 -0.4180 -0.4995
vn -0.0589 -0.3307 -0.9419
vn 0.5572 -0.0868 -0.8258
vn -0.8771 -0.3867 -0.2849
vn 0.0595 0.3308 0.9418
vn 0.9165 0.3620 0.1704
vn -0.5079 -0.4181 -0.7532
vn -0.9290 -0.2090 0.3054
vn 0.7529 0.4188 0.5077
vn -0.3971 -0.4045 -0.8238
vn -0.9496 -0.2580 0.1779
vn 0.9526 0.2987 -0.0576
vn 0.8925 0.1582 -0.4224
vn -0.1754 -0.3610 -0.9159
vn 0.1767 0.3613 0.9155
vn 0.6169 -0.0535 -0.7852
vn -0.9164 -0.3621 -0.1708
vn 0.8739 0.3881 0.2927
vn 0.5087 0.4182 0.7525
vn -0.6177 0.0531 0.7846
vn -0.2947 -0.3869 -0.8738
vn -0.4335 0.1489 0.8887
vn 0.8272 0.4047 0.3899
vn 0.1850 -0.2520 -0.9499
vn -0.6819 -0.4242 -0.5959
vn -0.5577 0.0866 0.8255
vn 0.3727 0.4007 0.8370
vn -0.8244 -0.4054 -0.3950
vn -0.7593 -0.0387 0.6496
vn 0.5611 0.4223 0.7119
vn 0.0597 -0.2950 -0.9536
vn 0.9147 0.3634 0.1766
vn -0.3671 0.1790 0.9128
vn 0.5899 0.4238 0.6874
vn -0.8923 -0.1580 0.4229
vn -0.9526 -0.2986 0.0579
vn 0.9497 0.2581 -0.1775
vn -0.9159 -0.3625 -0.1725
vn 0.7474 0.0302 -0.6636
vn -0.5506 0.0904 0.8299
vn -0.9526 -0.2985 0.0582
vn -0.6023 -0.4242 -0.6762
vn 0.9302 0.2112 -0.3002
vn -0.9414 -0.3326 -0.0563
vn 0.3421 0.3956 0.8523
vn 0.6657 -0.0242 -0.7458
vn 0.2889 0.3857 0.8762
vn -0.8772 -0.3866 -0.2847
vn 0.7639 0.4174 0.4922
vn 0.8355 0.1003 -0.5403
vn -0.0598 -0.3309 -0.9418
vn 0.1784 0.3617 0.9151
vn 0.7594 0.0388 -0.6495
vn 0.3758 -0.1752 -0.9100
vn -0.3411 -0.3954 -0.8528
vn -0.3871 0.1702 0.9062
vn 0.4962 0.4170 0.7615
vn 0.5939 0.4239 0.6838
vn 0.8885 0.1535 -0.4325
vn -0.9301 -0.2109 0.3007
vn 0.3038 -0.2058 -0.9302
vn -0.3442 -0.3959 -0.8513
vn 0.4051 0.4057 0.8193
vn 0.6759 0.4244 0.6025
vn 0.1812 -0.2534 -0.9502
vn -0.7620 -0.4176 -0.4949
vn 0.4379 -0.1468 -0.8869
vn -0.8304 -0.0957 0.5489
vn -0.9494 -0.2572 0.1801
vn -0.4996 -0.4173 -0.7591
vn -0.3107 0.2030 0.9286
vn 0.3675 -0.1788 -0.9127
vn 0.3694 -0.1780 -0.9121
vn -0.4387 0.1465 0.8866
vn -0.4049 -0.4057 -0.8195
vn 0.3420 0.3956 0.8524
vn 0.3123 -0.2023 -0.9282
vn 0.8783 0.3861 0.2821
vn -0.1789 -0.3618 -0.9149
vn 0.6510 -0.0333 -0.7584
vn 0.9410 0.3332 0.0584
vn 0.9289 0.2088 -0.3059
vn 0.6038 0.4243 0.6749
vn -0.1859 0.2517 0.9498
vn -0.8353 -0.1001 0.5406
usemtl Material.001
s off
f 1//1 3//1 4//1 2//1
f 1//1 7//1 8//1 5//1 6//1 10//1 9//1 3//1
f 162//2 163//2 165//2 164//2
f 162//2 164//2 170//2 171//2 167//2 166//2 169//2 168//2
f 1//3 2//3 163//3 162//3
f 2//4 4//4 165//4 163//4
f 4//5 3//5 164//5 165//5
f 6//6 5//6 166//6 167//6
f 8//7 7//7 168//7 169//7
f 5//6 8//6 169//6 166//6
f 7//4 1//4 162//4 168//4
f 9//8 10//8 171//8 170//8
f 3//4 9//4 170//4 164//4
f 10//6 6//6 167//6 171//6
usemtl Material.002
f 14//1 13//1 12//1
f 14//1 12//1 11//1
f 11//1 19//1 18//1
f 11//1 18//1 17//1
f 14//1 11//1 17//1
f 15//1 14//1 17//1
f 15//1 17//1 16//1
f 22//1 21//1 20//1
f 22//1 20//1 28//1
f 28//1 20//1 27//1
f 22//1 28//1 30//1
f 29//1 28//1 27//1
f 22//1 30//1 24//1
f 24//1 30//1 29//1
f 24//1 29//1 25//1
f 25//1 29//1 27//1
f 22//1 24//1 23//1
f 26//1 25//1 27//1
f 39//1 38//1 37//1
f 39//1 37//1 36//1
f 36//1 35//1 34//1
f 36//1 34//1 41//1
f 41//1 34//1 33//1
f 33//1 32//1 31//1
f 33//1 31//1 43//1
f 36//1 41//1 40//1
f 42//1 41//1 33//1
f 39//1 36//1 40//1
f 42//1 33//1 43//1
f 46//1 45//1 54//1
f 54//1 45//1 44//1
f 54//1 44//1 55//1
f 46//1 54//1 53//1
f 46//1 53//1 50//1
f 50//1 53//1 52//1
f 50//1 52//1 51//1
f 46//1 50//1 49//1
f 46//1 49//1 48//1
f 46//1 48//1 47//1
f 61//1 60//1 59//1
f 61//1 59//1 63//1
f 63//1 59//1 58//1
f 58//1 57//1 56//1
f 58//1 56//1 65//1
f 61//1 63//1 62//1
f 64//1 63//1 58//1
f 64//1 58//1 65//1
f 103//1 102//1 101//1
f 103//1 101//1 100//1
f 104//1 103//1 100//1
f 104//1 100//1 99//1
f 105//1 104//1 99//1
f 105//1 99//1 98//1
f 106//1 105//1 98//1
f 106//1 98//1 97//1
f 107//1 106//1 97//1
f 107//1 97//1 96//1
f 108//1 107//1 126//1
f 126//1 107//1 96//1
f 108//1 126//1 125//1
f 127//1 126//1 96//1
f 128//1 127//1 96//1
f 108//1 125//1 124//1
f 129//1 128//1 96//1
f 108//1 124//1 123//1
f 129//1 96//1 95//1
f 109//1 108//1 123//1
f 130//1 129//1 95//1
f 109//1 123//1 122//1
f 131//1 130//1 95//1
f 109//1 122//1 121//1
f 131//1 95//1 94//1
f 110//1 109//1 121//1
f 132//1 131//1 94//1
f 110//1 121//1 120//1
f 133//1 132//1 94//1
f 110//1 120//1 119//1
f 133//1 94//1 93//1
f 111//1 110//1 119//1
f 134//1 133//1 93//1
f 111//1 119//1 118//1
f 134//1 93//1 92//1
f 112//1 111//1 118//1
f 135//1 134//1 92//1
f 112//1 118//1 117//1
f 136//1 135//1 92//1
f 112//1 117//1 116//1
f 136//1 92//1 91//1
f 113//1 112//1 116//1
f 137//1 136//1 91//1
f 113//1 116//1 115//1
f 137//1 91//1 90//1
f 66//1 113//1 115//1
f 138//1 137//1 90//1
f 66//1 115//1 114//1
f 67//1 66//1 114//1
f 67//1 114//1 161//1
f 139//1 138//1 90//1
f 139//1 90//1 89//1
f 67//1 161//1 160//1
f 140//1 139//1 89//1
f 140//1 89//1 88//1
f 68//1 67//1 160//1
f 68//1 160//1 159//1
f 141//1 140//1 88//1
f 141//1 88//1 87//1
f 69//1 68//1 159//1
f 142//1 141//1 87//1
f 69//1 159//1 158//1
f 142//1 87//1 86//1
f 70//1 69//1 158//1
f 143//1 142//1 86//1
f 70//1 158//1 157//1
f 144//1 143//1 86//1
f 70//1 157//1 156//1
f 144//1 86//1 85//1
f 71//1 70//1 156//1
f 145//1 144//1 85//1
f 71//1 156//1 155//1
f 146//1 145//1 85//1
f 71//1 155//1 154//1
f 146//1 85//1 84//1
f 72//1 71//1 154//1
f 147//1 146//1 84//1
f 72//1 154//1 153//1
f 148//1 147//1 84//1
f 72//1 153//1 152//1
f 148//1 84//1 83//1
f 73//1 72//1 152//1
f 149//1 148//1 83//1
f 73//1 152//1 151//1
f 150//1 149//1 83//1
f 73//1 151//1 150//1
f 73//1 150//1 83//1
f 73//1 83//1 82//1
f 74//1 73//1 82//1
f 74//1 82//1 81//1
f 75//1 74//1 81//1
f 75//1 81//1 80//1
f 76//1 75//1 80//1
f 76//1 80//1 79//1
f 77//1 76//1 79//1
f 77//1 79//1 78//1
f 175//2 173//2 174//2
f 175//2 172//2 173//2
f 172//2 179//2 180//2
f 172//2 178//2 179//2
f 175//2 178//2 172//2
f 176//2 178//2 175//2
f 176//2 177//2 178//2
f 183//2 181//2 182//2
f 183//2 189//2 181//2
f 189//2 188//2 181//2
f 183//2 191//2 189//2
f 190//2 188//2 189//2
f 183//2 185//2 191//2
f 185//2 190//2 191//2
f 185//2 186//2 190//2
f 186//2 188//2 190//2
f 183//2 184//2 185//2
f 187//2 188//2 186//2
f 200//2 198//2 199//2
f 200//2 197//2 198//2
f 197//2 195//2 196//2
f 197//2 202//2 195//2
f 202//2 194//2 195//2
f 194//2 192//2 193//2
f 194//2 204//2 192//2
f 197//2 201//2 202//2
f 203//2 194//2 202//2
f 200//2 201//2 197//2
f 203//2 204//2 194//2
f 207//2 215//2 206//2
f 215//2 205//2 206//2
f 215//2 216//2 205//2
f 207//2 214//2 215//2
f 207//2 211//2 214//2
f 211//2 213//2 214//2
f 211//2 212//2 213//2
f 207//2 210//2 211//2
f 207//2 209//2 210//2
f 207//2 208//2 209//2
f 222//2 220//2 221//2
f 222//2 224//2 220//2
f 224//2 219//2 220//2
f 219//2 217//2 218//2
f 219//2 226//2 217//2
f 222//2 223//2 224//2
f 225//2 219//2 224//2
f 225//2 226//2 219//2
f 264//2 262//2 263//2
f 264//2 261//2 262//2
f 265//2 261//2 264//2
f 265//2 260//2 261//2
f 266//2 260//2 265//2
f 266//2 259//2 260//2
f 267//2 259//2 266//2
f 267//2 258//2 259//2
f 268//2 258//2 267//2
f 268//2 257//2 258//2
f 269//2 287//2 268//2
f 287//2 257//2 268//2
f 269//2 286//2 287//2
f 288//2 257//2 287//2
f 289//2 257//2 288//2
f 269//2 285//2 286//2
f 290//2 257//2 289//2
f 269//2 284//2 285//2
f 290//2 256//2 257//2
f 270//2 284//2 269//2
f 291//2 256//2 290//2
f 270//2 283//2 284//2
f 292//2 256//2 291//2
f 270//2 282//2 283//2
f 292//2 255//2 256//2
f 271//2 282//2 270//2
f 293//2 255//2 292//2
f 271//2 281//2 282//2
f 294//2 255//2 293//2
f 271//2 280//2 281//2
f 294//2 254//2 255//2
f 272//2 280//2 271//2
f 295//2 254//2 294//2
f 272//2 279//2 280//2
f 295//2 253//2 254//2
f 273//2 279//2 272//2
f 296//2 253//2 295//2
f 273//2 278//2 279//2
f 297//2 253//2 296//2
f 273//2 277//2 278//2
f 297//2 252//2 253//2
f 274//2 277//2 273//2
f 298//2 252//2 297//2
f 274//2 276//2 277//2
f 298//2 251//2 252//2
f 227//2 276//2 274//2
f 299//2 251//2 298//2
f 227//2 275//2 276//2
f 228//2 275//2 227//2
f 228//2 322//2 275//2
f 300//2 251//2 299//2
f 300//2 250//2 251//2
f 228//2 321//2 322//2
f 301//2 250//2 300//2
f 301//2 249//2 250//2
f 229//2 321//2 228//2
f 229//2 320//2 321//2
f 302//2 249//2 301//2
f 302//2 248//2 249//2
f 230//2 320//2 229//2
f 303//2 248//2 302//2
f 230//2 319//2 320//2
f 303//2 247//2 248//2
f 231//2 319//2 230//2
f 304//2 247//2 303//2
f 231//2 318//2 319//2
f 305//2 247//2 304//2
f 231//2 317//2 318//2
f 305//2 246//2 247//2
f 232//2 317//2 231//2
f 306//2 246//2 305//2
f 232//2 316//2 317//2
f 307//2 246//2 306//2
f 232//2 315//2 316//2
f 307//2 245//2 246//2
f 233//2 315//2 232//2
f 308//2 245//2 307//2
f 233//2 314//2 315//2
f 309//2 245//2 308//2
f 233//2 313//2 314//2
f 309//2 244//2 245//2
f 234//2 313//2 233//2
f 310//2 244//2 309//2
f 234//2 312//2 313//2
f 311//2 244//2 310//2
f 234//2 311//2 312//2
f 234//2 244//2 311//2
f 234//2 243//2 244//2
f 235//2 243//2 234//2
f 235//2 242//2 243//2
f 236//2 242//2 235//2
f 236//2 241//2 242//2
f 237//2 241//2 236//2
f 237//2 240//2 241//2
f 238//2 240//2 237//2
f 238//2 239//2 240//2
f 69//9 70//9 231//9 230//9
f 143//10 144//10 305//10 304//10
f 79//11 80//11 241//11 240//11
f 11//12 12//12 173//12 172//12
f 131//13 132//13 293//13 292//13
f 108//14 109//14 270//14 269//14
f 18//6 19//6 180//6 179//6
f 155//15 156//15 317//15 316//15
f 82//16 83//16 244//16 243//16
f 126//17 127//17 288//17 287//17
f 12//6 13//6 174//6 173//6
f 55//5 44//5 205//5 216//5
f 113//18 66//18 227//18 274//18
f 105//19 106//19 267//19 266//19
f 140//20 141//20 302//20 301//20
f 66//21 67//21 228//21 227//21
f 64//4 65//4 226//4 225//4
f 95//22 96//22 257//22 256//22
f 27//23 20//23 181//23 188//23
f 114//24 115//24 276//24 275//24
f 52//6 53//6 214//6 213//6
f 112//25 113//25 274//25 273//25
f 74//26 75//26 236//26 235//26
f 86//27 87//27 248//27 247//27
f 32//28 33//28 194//28 193//28
f 125//29 126//29 287//29 286//29
f 107//30 108//30 269//30 268//30
f 59//6 60//6 221//6 220//6
f 25//31 26//31 187//31 186//31
f 135//32 136//32 297//32 296//32
f 14//3 15//3 176//3 175//3
f 20//6 21//6 182//6 181//6
f 150//33 151//33 312//33 311//33
f 153//34 154//34 315//34 314//34
f 92//35 93//35 254//35 253//35
f 85//36 86//36 247//36 246//36
f 58//37 59//37 220//37 219//37
f 42//4 43//4 204//4 203//4
f 49//5 50//5 211//5 210//5
f 138//38 139//38 300//38 299//38
f 23//39 24//39 185//39 184//39
f 97//40 98//40 259//40 258//40
f 90//41 91//41 252//41 251//41
f 118//42 119//42 280//42 279//42
f 56//6 57//6 218//6 217//6
f 152//43 153//43 314//43 313//43
f 47//5 48//5 209//5 208//5
f 37//6 38//6 199//6 198//6
f 137//44 138//44 299//44 298//44
f 127//45 128//45 289//45 288//45
f 24//4 25//4 186//4 185//4
f 157//46 158//46 319//46 318//46
f 104//47 105//47 266//47 265//47
f 73//48 74//48 235//48 234//48
f 22//4 23//4 184//4 183//4
f 45//3 46//3 207//3 206//3
f 93//49 94//49 255//49 254//49
f 148//50 149//50 310//50 309//50
f 78//51 79//51 240//51 239//51
f 122//52 123//52 284//52 283//52
f 91//53 92//53 253//53 252//53
f 67//54 68//54 229//54 228//54
f 17//55 18//55 179//55 178//55
f 100//56 101//56 262//56 261//56
f 75//57 76//57 237//57 236//57
f 133//58 134//58 295//58 294//58
f 50//4 51//4 212//4 211//4
f 31//6 32//6 193//6 192//6
f 34//6 35//6 196//6 195//6
f 60//3 61//3 222//3 221//3
f 19//59 11//59 172//59 180//59
f 159//60 160//60 321//60 320//60
f 65//5 56//5 217//5 226//5
f 110//61 111//61 272//61 271//61
f 129//62 130//62 291//62 290//62
f 115//63 116//63 277//63 276//63
f 15//4 16//4 177//4 176//4
f 96//64 97//64 258//64 257//64
f 142//65 143//65 304//65 303//65
f 16//5 17//5 178//5 177//5
f 28//66 29//66 190//66 189//66
f 98//67 99//67 260//67 259//67
f 144//68 145//68 306//68 305//68
f 53//5 54//5 215//5 214//5
f 46//4 47//4 208//4 207//4
f 62//5 63//5 224//5 223//5
f 48//6 49//6 210//6 209//6
f 13//69 14//69 175//69 174//69
f 89//70 90//70 251//70 250//70
f 76//71 77//71 238//71 237//71
f 35//72 36//72 197//72 196//72
f 71//73 72//73 233//73 232//73
f 146//74 147//74 308//74 307//74
f 149//75 150//75 311//75 310//75
f 124//76 125//76 286//76 285//76
f 151//77 152//77 313//77 312//77
f 83//78 84//78 245//78 244//78
f 109//79 110//79 271//79 270//79
f 102//80 103//80 264//80 263//80
f 156//81 157//81 318//81 317//81
f 123//82 124//82 285//82 284//82
f 101//83 102//83 263//83 262//83
f 41//84 42//84 203//84 202//84
f 119//85 120//85 281//85 280//85
f 68//86 69//86 230//86 229//86
f 99//87 100//87 261//87 260//87
f 39//4 40//4 201//4 200//4
f 130//88 131//88 292//88 291//88
f 121//89 122//89 283//89 282//89
f 161//90 114//90 275//90 322//90
f 136//91 137//91 298//91 297//91
f 120//92 121//92 282//92 281//92
f 26//4 27//4 188//4 187//4
f 30//93 28//93 189//93 191//93
f 36//94 37//94 198//94 197//94
f 21//95 22//95 183//95 182//95
f 70//96 71//96 232//96 231//96
f 63//97 64//97 225//97 224//97
f 81//98 82//98 243//98 242//98
f 147//99 148//99 309//99 308//99
f 87//100 88//100 249//100 248//100
f 33//101 34//101 195//101 194//101
f 134//102 135//102 296//102 295//102
f 72//103 73//103 234//103 233//103
f 88//104 89//104 250//104 249//104
f 154//105 155//105 316//105 315//105
f 61//4 62//4 223//4 222//4
f 117//106 118//106 279//106 278//106
f 106//107 107//107 268//107 267//107
f 103//108 104//108 265//108 264//108
f 94//109 95//109 256//109 255//109
f 111//110 112//110 273//110 272//110
f 43//111 31//111 192//111 204//111
f 51//5 52//5 213//5 212//5
f 44//6 45//6 206//6 205//6
f 40//112 41//112 202//112 201//112
f 141//113 142//113 303//113 302//113
f 158//114 159//114 320//114 319//114
f 54//4 55//4 216//4 215//4
f 38//115 39//115 200//115 199//115
f 57//3 58//3 219//3 218//3
f 116//116 117//116 278//116 277//116
f 128//117 129//117 290//117 289//117
f 160//118 161//118 322//118 321//118
f 84//119 85//119 246//119 245//119
f 77//120 78//120 239//120 238//120
f 29//6 30//6 191//6 190//6
f 80//121 81//121 242//121 241//121
f 132//122 133//122 294//122 293//122
f 139//123 140//123 301//123 300//123
f 145//124 146//124 307//124 306//124
