# Blender v2.79 (sub 0) OBJ File: 'road-design9.blend'
# www.blender.org
mtllib road-design9.mtl
o Plane.002_Plane.001
v 8.333104 0.000000 7.336607
v 10.415661 0.000000 7.336607
v 8.333104 0.000000 6.105579
v 10.415661 0.000000 6.105579
vn 0.0000 1.0000 0.0000
usemtl yellow-space
s off
f 1//1 2//1 4//1 3//1
o Plane.001_Plane
v -10.383371 0.000000 10.459476
v -8.373886 0.000000 10.459476
v -10.383371 0.000000 9.259107
v -8.373886 0.000000 9.259107
vn 0.0000 1.0000 0.0000
usemtl empty-space
s off
f 5//2 6//2 8//2 7//2
o Plane_main-road
v -8.373064 0.000000 10.462272
v -6.177142 0.000000 10.462272
v -8.373064 0.000000 7.337427
v -6.177142 0.000000 7.337427
v -8.373064 0.000000 5.132773
v -6.177142 0.000000 5.132773
v -8.373064 0.000000 -0.795419
v -6.177142 0.000000 -0.795419
v -8.373064 0.000000 -2.286633
v -6.177142 0.000000 -2.286633
v -8.373064 0.000000 -7.179631
v -6.177142 0.000000 -7.179631
v -8.373064 0.000000 -9.409772
v -6.177142 0.000000 -9.409772
v -8.373064 0.000000 -10.382133
v -6.177142 0.000000 -10.382133
v -2.275480 0.000000 -7.179631
v -2.275480 0.000000 -9.409772
v -0.024013 0.000000 -7.179631
v -0.024013 0.000000 -9.409772
v -0.024013 0.000000 -7.179631
v -0.024013 0.000000 -9.409772
v 4.065569 0.000000 -7.179631
v 4.065569 0.000000 -9.409772
v 5.783004 0.000000 -7.179631
v 5.783004 0.000000 -9.409772
v 6.828182 0.000000 -7.179631
v 6.828182 0.000000 -9.409772
v 8.330472 0.000000 -7.179631
v 8.330472 0.000000 -9.409772
v 10.450716 0.000000 -7.179631
v 10.450716 0.000000 -9.409772
v -10.364813 0.000000 7.337427
v -10.364813 0.000000 5.132773
v -2.258520 0.000000 7.337427
v -2.258520 0.000000 5.132773
v -0.007473 0.000000 7.337427
v -0.007473 0.000000 5.132773
v 4.074339 0.000000 7.337427
v 4.074339 0.000000 5.132773
v 5.776520 0.000000 7.337427
v 5.776520 0.000000 5.132773
v 6.831448 0.000000 7.337427
v 6.831448 0.000000 5.132773
v 8.332947 0.000000 7.337427
v 8.332947 0.000000 5.132773
v 6.831448 0.000000 5.132773
v 8.332947 0.000000 5.132773
v 6.831448 0.000000 -7.168542
v 8.332947 0.000000 -7.168542
v 6.831448 0.000000 -7.168542
v 8.332947 0.000000 -7.168542
v -2.258520 0.000000 10.480024
v -0.007473 0.000000 10.480024
v -2.275936 0.000000 -0.795419
v -2.275936 0.000000 -2.286633
v -2.275480 0.000000 -3.102674
v -0.024013 0.000000 -3.102674
v -0.024013 0.000000 -3.102674
v -2.275480 0.000000 -0.767160
v -0.024013 0.000000 -0.767160
v -0.024013 0.000000 -0.780889
v 4.065569 0.000000 -3.105122
v 5.783004 0.000000 -3.105122
v 4.065569 0.000000 -0.761920
v 5.783004 0.000000 -0.761920
v 4.065569 0.000000 5.130497
v 5.783004 0.000000 5.130497
v -0.027715 0.000000 -3.105122
v -0.027715 0.000000 -0.761920
v -2.279158 0.000000 5.127540
v -0.874599 0.000000 5.127540
v -2.279158 0.000000 -0.766127
v -0.874599 0.000000 -0.766127
vt 0.002936 0.989129
vt -0.002733 -0.002215
vt 0.992495 -0.010704
vt 0.998164 0.989129
vt 0.116590 0.887263
vt 0.116590 0.812707
vt 0.190091 0.808364
vt 0.193415 0.887263
vt 0.003493 0.984884
vt -0.008334 -0.010803
vt 0.991960 -0.004836
vt 0.997084 0.992817
vt 0.444328 0.882463
vt 0.442039 0.797353
vt 0.486570 0.794179
vt 0.488249 0.883793
vt -0.002145 0.994147
vt -0.006658 -0.003765
vt 0.991605 -0.004719
vt 0.995893 0.987667
vt 0.735106 0.881557
vt 0.733653 0.788981
vt 0.831070 0.786896
vt 0.832746 0.880635
vt 0.574793 0.986745
vt 0.578787 -0.002560
vt 0.801552 0.000514
vt 0.786635 0.990209
vt 0.989721 -0.006796
vt 0.996784 0.996436
vt -0.000532 0.990210
vt -0.001925 -0.000288
vt 0.302315 0.354686
vt 0.204897 0.356772
vt 0.202887 0.262859
vt 0.300304 0.260774
vt 0.824713 0.489971
vt 0.727296 0.492056
vt 0.727296 0.492056
vt 0.824713 0.489971
vt 0.992678 -0.014255
vt 1.002575 0.997465
vt -0.001414 0.999640
vt -0.002807 -0.003591
vt 0.820426 0.289700
vt 0.723009 0.291785
vt 0.721482 0.220481
vt 0.818900 0.218395
vt 0.822643 -0.009795
vt 0.821201 0.989193
vt 0.374698 1.003492
vt 0.364801 0.004505
vt 0.817853 0.169516
vt 0.720436 0.171601
vt 0.718932 0.101344
vt 0.816349 0.099259
vt 0.640254 -0.002577
vt 0.658655 1.000654
vt 0.320306 0.999588
vt 0.318913 0.000601
vt -0.004375 0.991689
vt 0.004129 -0.006176
vt 1.000488 -0.006176
vt 0.997653 0.995933
vt 1.005923 -0.005443
vt 1.000320 0.987444
vt -0.004929 1.001186
vt 0.000681 -0.008981
vt 0.175445 0.661392
vt 0.110247 0.665726
vt 0.111911 0.605585
vt 0.167147 0.602733
vt 1.001218 -0.004221
vt 1.002586 0.997328
vt -0.001527 1.002990
vt 0.003435 -0.008032
vt 0.426432 0.172559
vt 0.416636 0.379592
vt 0.221400 0.382447
vt 0.223054 0.178419
vt 0.902013 -0.000533
vt 0.901826 1.000681
vt 0.353381 0.997182
vt 0.350117 -0.001726
vt 0.357696 0.377835
vt 0.137630 0.372368
vt 0.130687 0.244287
vt 0.350117 0.239001
vt 0.143854 0.453559
vt 0.143769 0.456146
vt 0.156597 0.452643
vt 0.156462 0.452133
vt 0.156568 0.452082
vt 0.156486 0.452602
vt 0.143798 0.452483
vt 0.143448 0.449918
vt 0.198956 0.267481
vt 0.369960 0.179579
vt 0.552719 0.336731
vt 0.362969 0.424949
vt 0.466242 0.007127
vt 0.450404 1.001032
vt 0.147674 0.993767
vt 0.133001 -0.000773
vt 0.428386 0.605775
vt 0.472916 0.602602
vt 0.520854 0.496476
vt 0.520854 0.496476
vt 0.792493 -0.000293
vt 0.817181 0.997674
vt 0.165699 0.997849
vt 0.169358 -0.000118
vt 0.428523 0.498452
vt 0.428523 0.498452
vt 0.540697 0.271523
vt 0.542707 0.365436
vt 0.450376 0.367412
vt 0.448365 0.273500
vt 0.516681 0.296202
vt 0.515155 0.224898
vt 0.422873 0.298210
vt 0.421347 0.226906
vt 0.140579 0.304254
vt 0.139052 0.232949
vt 0.230355 1.000712
vt 0.231848 -0.001360
vt 0.795666 0.000747
vt 0.782834 1.002819
vt 0.130495 0.740991
vt 0.130495 0.702808
vt 0.358307 0.702808
vt 0.358307 0.740991
vn 0.0000 1.0000 0.0000
vn 0.0000 0.0000 1.0000
vn 0.0000 -1.0000 0.0000
usemtl Material.001
s off
f 9/1/3 10/2/3 12/3/3 11/4/3
f 11/5/3 12/6/3 14/7/3 13/8/3
f 13/9/3 14/10/3 16/11/3 15/12/3
f 15/13/3 16/14/3 18/15/3 17/16/3
f 17/17/3 18/18/3 20/19/3 19/20/3
f 19/21/3 20/22/3 22/23/3 21/24/3
f 21/25/3 22/26/3 24/27/3 23/28/3
f 22/29/3 20/30/3 25/31/3 26/32/3
f 26/33/3 25/34/3 27/35/3 28/36/3
f 28/37/4 27/38/4 29/39/4 30/40/4
f 30/41/3 29/42/3 31/43/3 32/44/3
f 32/45/3 31/46/3 33/47/3 34/48/3
f 34/49/3 33/50/3 35/51/3 36/52/3
f 36/53/3 35/54/3 37/55/3 38/56/3
f 38/57/3 37/58/3 39/59/3 40/60/3
f 11/61/3 13/62/3 42/63/3 41/64/3
f 14/65/3 12/66/3 43/67/3 44/68/3
f 44/69/3 43/70/3 45/71/3 46/72/3
f 46/73/3 45/74/3 47/75/3 48/76/3
f 48/77/3 47/78/3 49/79/3 50/80/3
f 50/81/3 49/82/3 51/83/3 52/84/3
f 52/85/3 51/86/3 53/87/3 54/88/3
f 55/89/4 52/90/4 57/91/4 59/92/4
f 57/91/4 58/93/4 60/94/4 59/92/4
f 56/95/5 55/89/5 59/92/5 60/94/5
f 54/96/4 56/95/4 60/94/4 58/93/4
f 52/97/3 54/98/3 58/99/3 57/100/3
f 45/101/3 43/102/3 61/103/3 62/104/3
f 18/15/3 16/14/3 63/105/3 64/106/3
f 29/39/4 27/38/4 66/107/4 67/108/4
f 27/109/3 25/110/3 65/111/3 66/112/3
f 67/108/3 66/107/3 69/113/3 70/114/3
f 66/115/3 65/116/3 68/117/3 69/118/3
f 33/47/3 31/46/3 71/119/3 72/120/3
f 72/120/3 71/119/3 73/121/3 74/122/3
f 74/122/3 73/121/3 75/123/3 76/124/3
f 73/125/3 71/126/3 77/127/3 78/128/3
f 79/129/3 80/130/3 82/131/3 81/132/3
