# Blender v2.79 (sub 0) OBJ File: 'start.blend'
# www.blender.org
mtllib start.mtl
o Text
v -0.682000 0.000000 -2.920000
v -0.682000 0.000000 -2.350000
v -0.594000 0.000000 -2.350000
v -0.594000 0.000000 -2.586000
v -0.000000 0.000000 -2.586000
v -0.000000 0.000000 -2.684000
v -0.594000 0.000000 -2.684000
v -0.594000 0.000000 -2.920000
v -0.682000 0.000000 -1.806000
v -0.000000 0.000000 -1.806000
v -0.000000 0.000000 -1.904000
v -0.296000 0.000000 -1.904000
v -0.296000 0.000000 -1.945000
v -0.295604 0.000000 -1.957346
v -0.294167 0.000000 -1.969519
v -0.291313 0.000000 -1.981719
v -0.286667 0.000000 -1.994148
v -0.279854 0.000000 -2.007008
v -0.270500 0.000000 -2.020500
v -0.258229 0.000000 -2.034826
v -0.242667 0.000000 -2.050185
v -0.223438 0.000000 -2.066782
v -0.200167 0.000000 -2.084815
v -0.172479 0.000000 -2.104488
v -0.140000 0.000000 -2.126000
v -0.000000 0.000000 -2.216000
v -0.000000 0.000000 -2.333000
v -0.015413 0.000000 -2.321851
v -0.029306 0.000000 -2.311806
v -0.041906 0.000000 -2.302719
v -0.053445 0.000000 -2.294445
v -0.064149 0.000000 -2.286837
v -0.074250 0.000000 -2.279750
v -0.083976 0.000000 -2.273038
v -0.093556 0.000000 -2.266556
v -0.103219 0.000000 -2.260156
v -0.113195 0.000000 -2.253695
v -0.123712 0.000000 -2.247025
v -0.135000 0.000000 -2.240000
v -0.155792 0.000000 -2.227270
v -0.175667 0.000000 -2.214991
v -0.194625 0.000000 -2.203031
v -0.212667 0.000000 -2.191259
v -0.229792 0.000000 -2.179543
v -0.246000 0.000000 -2.167750
v -0.261292 0.000000 -2.155749
v -0.275667 0.000000 -2.143407
v -0.289125 0.000000 -2.130594
v -0.301667 0.000000 -2.117176
v -0.313292 0.000000 -2.103022
v -0.324000 0.000000 -2.088000
v -0.331869 0.000000 -2.105578
v -0.340954 0.000000 -2.121792
v -0.351219 0.000000 -2.136610
v -0.362630 0.000000 -2.150000
v -0.375152 0.000000 -2.161932
v -0.388750 0.000000 -2.172375
v -0.403390 0.000000 -2.181297
v -0.419037 0.000000 -2.188667
v -0.435656 0.000000 -2.194453
v -0.453213 0.000000 -2.198625
v -0.471673 0.000000 -2.201151
v -0.491000 0.000000 -2.202000
v -0.519546 0.000000 -2.200228
v -0.546121 0.000000 -2.194991
v -0.570625 0.000000 -2.186406
v -0.592963 0.000000 -2.174593
v -0.613037 0.000000 -2.159668
v -0.630750 0.000000 -2.141750
v -0.646005 0.000000 -2.120957
v -0.658704 0.000000 -2.097408
v -0.668750 0.000000 -2.071219
v -0.676046 0.000000 -2.042510
v -0.680496 0.000000 -2.011397
v -0.682000 0.000000 -1.978000
v -0.598000 0.000000 -1.904000
v -0.598000 0.000000 -1.967000
v -0.597196 0.000000 -1.989574
v -0.594815 0.000000 -2.009843
v -0.590906 0.000000 -2.027875
v -0.585519 0.000000 -2.043741
v -0.578700 0.000000 -2.057509
v -0.570500 0.000000 -2.069250
v -0.560967 0.000000 -2.079032
v -0.550148 0.000000 -2.086926
v -0.538094 0.000000 -2.093000
v -0.524852 0.000000 -2.097324
v -0.510471 0.000000 -2.099967
v -0.495000 0.000000 -2.101000
v -0.480842 0.000000 -2.100579
v -0.466986 0.000000 -2.098713
v -0.453609 0.000000 -2.095250
v -0.440889 0.000000 -2.090037
v -0.429002 0.000000 -2.082921
v -0.418125 0.000000 -2.073750
v -0.408436 0.000000 -2.062370
v -0.400111 0.000000 -2.048630
v -0.393328 0.000000 -2.032375
v -0.388264 0.000000 -2.013453
v -0.385096 0.000000 -1.991713
v -0.384000 0.000000 -1.967000
v -0.384000 0.000000 -1.904000
v -0.686000 0.000000 -1.424000
v -0.686000 0.000000 -1.355000
v -0.000000 0.000000 -1.062000
v -0.000000 0.000000 -1.162000
v -0.201000 0.000000 -1.248000
v -0.201000 0.000000 -1.538000
v -0.000000 0.000000 -1.629000
v -0.000000 0.000000 -1.729000
v -0.536000 0.000000 -1.388000
v -0.289000 0.000000 -1.498000
v -0.289000 0.000000 -1.286000
v -0.682000 0.000000 -1.045000
v -0.682000 0.000000 -0.475000
v -0.594000 0.000000 -0.475000
v -0.594000 0.000000 -0.711000
v -0.000000 0.000000 -0.711000
v -0.000000 0.000000 -0.809000
v -0.594000 0.000000 -0.809000
v -0.594000 0.000000 -1.045000
v -0.643000 0.000000 -0.399000
v -0.650667 0.000000 -0.386919
v -0.657667 0.000000 -0.374685
v -0.664000 0.000000 -0.362312
v -0.669667 0.000000 -0.349815
v -0.674667 0.000000 -0.337206
v -0.679000 0.000000 -0.324500
v -0.682667 0.000000 -0.311711
v -0.685667 0.000000 -0.298852
v -0.688000 0.000000 -0.285937
v -0.689667 0.000000 -0.272981
v -0.690667 0.000000 -0.259998
v -0.691000 0.000000 -0.247000
v -0.689539 0.000000 -0.216668
v -0.685227 0.000000 -0.188264
v -0.678172 0.000000 -0.161922
v -0.668482 0.000000 -0.137778
v -0.656263 0.000000 -0.115967
v -0.641625 0.000000 -0.096625
v -0.624674 0.000000 -0.079887
v -0.605519 0.000000 -0.065889
v -0.584266 0.000000 -0.054766
v -0.561023 0.000000 -0.046653
v -0.535899 0.000000 -0.041686
v -0.509000 0.000000 -0.040000
v -0.465641 0.000000 -0.045804
v -0.428380 0.000000 -0.061852
v -0.396187 0.000000 -0.086094
v -0.368037 0.000000 -0.116481
v -0.342900 0.000000 -0.150966
v -0.319750 0.000000 -0.187500
v -0.297558 0.000000 -0.224034
v -0.275296 0.000000 -0.258519
v -0.251937 0.000000 -0.288906
v -0.226454 0.000000 -0.313148
v -0.197817 0.000000 -0.329196
v -0.165000 0.000000 -0.335000
v -0.155325 0.000000 -0.334267
v -0.145435 0.000000 -0.332056
v -0.135531 0.000000 -0.328344
v -0.125815 0.000000 -0.323111
v -0.116487 0.000000 -0.316337
v -0.107750 0.000000 -0.308000
v -0.099804 0.000000 -0.298080
v -0.092852 0.000000 -0.286556
v -0.087094 0.000000 -0.273406
v -0.082731 0.000000 -0.258611
v -0.079966 0.000000 -0.242149
v -0.079000 0.000000 -0.224000
v -0.079726 0.000000 -0.207339
v -0.081889 0.000000 -0.190875
v -0.085469 0.000000 -0.174641
v -0.090444 0.000000 -0.158667
v -0.096795 0.000000 -0.142984
v -0.104500 0.000000 -0.127625
v -0.113538 0.000000 -0.112620
v -0.123889 0.000000 -0.098000
v -0.135531 0.000000 -0.083797
v -0.148444 0.000000 -0.070042
v -0.162608 0.000000 -0.056766
v -0.178000 0.000000 -0.044000
v -0.054000 0.000000 -0.044000
v -0.043727 0.000000 -0.058319
v -0.034403 0.000000 -0.072801
v -0.026016 0.000000 -0.087484
v -0.018556 0.000000 -0.102407
v -0.012012 0.000000 -0.117608
v -0.006375 0.000000 -0.133125
v -0.001634 0.000000 -0.148996
v 0.002222 0.000000 -0.165259
v 0.005203 0.000000 -0.181953
v 0.007319 0.000000 -0.199116
v 0.008582 0.000000 -0.216785
v 0.009000 0.000000 -0.235000
v 0.007403 0.000000 -0.261866
v 0.002727 0.000000 -0.287343
v -0.004859 0.000000 -0.311250
v -0.015185 0.000000 -0.333407
v -0.028080 0.000000 -0.353634
v -0.043375 0.000000 -0.371750
v -0.060899 0.000000 -0.387574
v -0.080482 0.000000 -0.400926
v -0.101953 0.000000 -0.411625
v -0.125144 0.000000 -0.419491
v -0.149883 0.000000 -0.424343
v -0.176000 0.000000 -0.426000
v -0.225891 0.000000 -0.420196
v -0.267880 0.000000 -0.404148
v -0.303188 0.000000 -0.379906
v -0.333037 0.000000 -0.349519
v -0.358650 0.000000 -0.315034
v -0.381250 0.000000 -0.278500
v -0.402058 0.000000 -0.241966
v -0.422296 0.000000 -0.207482
v -0.443187 0.000000 -0.177094
v -0.465954 0.000000 -0.152852
v -0.491817 0.000000 -0.136804
v -0.522000 0.000000 -0.131000
v -0.533677 0.000000 -0.131922
v -0.544667 0.000000 -0.134625
v -0.554906 0.000000 -0.139016
v -0.564333 0.000000 -0.145000
v -0.572885 0.000000 -0.152484
v -0.580500 0.000000 -0.161375
v -0.587115 0.000000 -0.171578
v -0.592667 0.000000 -0.183000
v -0.597094 0.000000 -0.195547
v -0.600333 0.000000 -0.209125
v -0.602323 0.000000 -0.223641
v -0.603000 0.000000 -0.239000
v -0.602653 0.000000 -0.250704
v -0.601560 0.000000 -0.262796
v -0.599641 0.000000 -0.275250
v -0.596815 0.000000 -0.288037
v -0.593003 0.000000 -0.301130
v -0.588125 0.000000 -0.314500
v -0.582101 0.000000 -0.328120
v -0.574852 0.000000 -0.341963
v -0.566297 0.000000 -0.356000
v -0.556357 0.000000 -0.370204
v -0.544951 0.000000 -0.384546
v -0.532000 0.000000 -0.399000
vn 0.0000 1.0000 0.0000
vn 0.0000 -1.0000 0.0000
vn 0.0000 0.0000 1.0000
usemtl Material.001
s off
f 3//1 1//1 2//1
f 3//1 8//1 1//1
f 4//2 8//2 3//2
f 5//1 7//1 4//1
f 7//1 8//1 4//1
f 5//1 6//1 7//1
f 10//1 76//1 9//1
f 76//1 75//1 9//1
f 76//1 74//1 75//1
f 76//1 73//1 74//1
f 76//1 72//1 73//1
f 76//1 71//1 72//1
f 76//1 70//1 71//1
f 76//1 69//1 70//1
f 76//1 68//1 69//1
f 76//1 77//1 68//1
f 77//1 67//1 68//1
f 10//1 102//1 76//1
f 78//1 67//1 77//1
f 79//1 67//1 78//1
f 80//1 67//1 79//1
f 80//1 66//1 67//1
f 81//1 66//1 80//1
f 82//1 66//1 81//1
f 83//1 66//1 82//1
f 83//1 65//1 66//1
f 84//1 65//1 83//1
f 85//1 65//1 84//1
f 86//1 65//1 85//1
f 86//1 64//1 65//1
f 87//1 64//1 86//1
f 88//1 64//1 87//1
f 88//1 63//1 64//1
f 89//1 63//1 88//1
f 90//1 63//1 89//1
f 90//1 62//1 63//1
f 91//1 62//1 90//1
f 91//1 61//1 62//1
f 92//1 61//1 91//1
f 93//1 61//1 92//1
f 93//1 60//1 61//1
f 94//1 60//1 93//1
f 94//1 59//1 60//1
f 95//1 59//1 94//1
f 95//1 58//1 59//1
f 96//1 58//1 95//1
f 97//1 58//1 96//1
f 97//1 57//1 58//1
f 98//1 57//1 97//1
f 99//1 57//1 98//1
f 99//1 56//1 57//1
f 100//1 56//1 99//1
f 101//1 56//1 100//1
f 10//1 12//1 102//1
f 12//1 101//1 102//1
f 12//1 56//1 101//1
f 12//1 55//1 56//1
f 12//1 54//1 55//1
f 12//1 53//1 54//1
f 12//1 52//1 53//1
f 12//1 51//1 52//1
f 12//1 50//1 51//1
f 12//1 49//1 50//1
f 12//1 13//1 49//1
f 13//1 14//1 49//1
f 14//1 48//1 49//1
f 10//1 11//1 12//1
f 15//1 48//1 14//1
f 16//1 48//1 15//1
f 17//1 48//1 16//1
f 17//1 47//1 48//1
f 18//1 47//1 17//1
f 19//1 47//1 18//1
f 19//1 46//1 47//1
f 20//1 46//1 19//1
f 20//1 45//1 46//1
f 21//1 45//1 20//1
f 21//1 44//1 45//1
f 22//1 44//1 21//1
f 22//1 43//1 44//1
f 23//1 43//1 22//1
f 23//1 42//1 43//1
f 24//1 42//1 23//1
f 24//1 41//1 42//1
f 24//1 40//1 41//1
f 25//1 40//1 24//1
f 25//1 39//1 40//1
f 26//1 39//1 25//1
f 26//1 38//1 39//1
f 26//1 37//1 38//1
f 26//1 36//1 37//1
f 26//1 35//1 36//1
f 26//1 34//1 35//1
f 26//1 33//1 34//1
f 26//1 32//1 33//1
f 26//1 31//1 32//1
f 26//1 30//1 31//1
f 26//1 29//1 30//1
f 26//1 28//1 29//1
f 26//1 27//1 28//1
f 105//1 103//1 104//1
f 105//1 111//1 103//1
f 111//1 110//1 103//1
f 105//1 113//1 111//1
f 112//1 110//1 111//1
f 105//1 107//1 113//1
f 107//1 112//1 113//1
f 107//1 108//1 112//1
f 108//1 110//1 112//1
f 105//1 106//1 107//1
f 109//1 110//1 108//1
f 116//1 114//1 115//1
f 116//1 121//1 114//1
f 117//3 121//3 116//3
f 118//1 120//1 117//1
f 120//3 121//3 117//3
f 118//1 119//1 120//1
f 135//1 133//1 134//1
f 135//1 132//1 133//1
f 135//1 131//1 132//1
f 136//1 131//1 135//1
f 136//1 130//1 131//1
f 136//1 129//1 130//1
f 137//1 129//1 136//1
f 137//1 128//1 129//1
f 137//1 127//1 128//1
f 138//1 127//1 137//1
f 138//1 126//1 127//1
f 138//1 125//1 126//1
f 139//1 125//1 138//1
f 139//1 124//1 125//1
f 139//1 123//1 124//1
f 140//1 123//1 139//1
f 140//1 122//1 123//1
f 140//1 235//1 122//1
f 235//1 236//1 122//1
f 236//1 237//1 122//1
f 237//1 238//1 122//1
f 238//1 239//1 122//1
f 239//1 240//1 122//1
f 240//1 241//1 122//1
f 241//1 242//1 122//1
f 242//1 243//1 122//1
f 141//1 233//1 140//1
f 233//1 234//1 140//1
f 234//1 235//1 140//1
f 142//1 231//1 141//1
f 231//1 232//1 141//1
f 232//1 233//1 141//1
f 143//1 230//1 142//1
f 230//1 231//1 142//1
f 143//1 229//1 230//1
f 143//1 228//1 229//1
f 143//1 227//1 228//1
f 143//1 226//1 227//1
f 143//1 225//1 226//1
f 144//1 225//1 143//1
f 144//1 224//1 225//1
f 144//1 223//1 224//1
f 144//1 222//1 223//1
f 145//1 222//1 144//1
f 145//1 221//1 222//1
f 145//1 220//1 221//1
f 146//1 220//1 145//1
f 146//1 219//1 220//1
f 146//1 218//1 219//1
f 147//1 218//1 146//1
f 147//1 217//1 218//1
f 147//1 216//1 217//1
f 148//1 216//1 147//1
f 148//1 215//1 216//1
f 149//1 215//1 148//1
f 149//1 214//1 215//1
f 149//1 213//1 214//1
f 150//1 213//1 149//1
f 150//1 212//1 213//1
f 151//1 212//1 150//1
f 151//1 211//1 212//1
f 152//1 211//1 151//1
f 152//1 210//1 211//1
f 153//1 210//1 152//1
f 153//1 209//1 210//1
f 154//1 209//1 153//1
f 155//1 209//1 154//1
f 155//1 208//1 209//1
f 156//1 208//1 155//1
f 157//1 208//1 156//1
f 157//1 207//1 208//1
f 158//1 207//1 157//1
f 183//1 181//1 182//1
f 158//1 206//1 207//1
f 159//1 206//1 158//1
f 183//1 180//1 181//1
f 160//1 206//1 159//1
f 160//1 205//1 206//1
f 183//1 179//1 180//1
f 161//1 205//1 160//1
f 183//1 178//1 179//1
f 162//1 205//1 161//1
f 163//1 205//1 162//1
f 163//1 204//1 205//1
f 183//1 177//1 178//1
f 164//1 204//1 163//1
f 183//1 176//1 177//1
f 165//1 204//1 164//1
f 183//1 175//1 176//1
f 165//1 203//1 204//1
f 166//1 203//1 165//1
f 183//1 174//1 175//1
f 167//1 203//1 166//1
f 183//1 173//1 174//1
f 168//1 203//1 167//1
f 183//1 172//1 173//1
f 169//1 203//1 168//1
f 183//1 171//1 172//1
f 169//1 202//1 203//1
f 170//1 202//1 169//1
f 183//1 170//1 171//1
f 183//1 202//1 170//1
f 183//1 201//1 202//1
f 184//1 201//1 183//1
f 185//1 201//1 184//1
f 185//1 200//1 201//1
f 186//1 200//1 185//1
f 186//1 199//1 200//1
f 187//1 199//1 186//1
f 188//1 199//1 187//1
f 188//1 198//1 199//1
f 189//1 198//1 188//1
f 190//1 198//1 189//1
f 190//1 197//1 198//1
f 191//1 197//1 190//1
f 192//1 197//1 191//1
f 192//1 196//1 197//1
f 193//1 196//1 192//1
f 194//1 196//1 193//1
f 194//1 195//1 196//1
