# Blender v2.79 (sub 0) OBJ File: 'stop_sign.blend'
# www.blender.org
mtllib stop_sign.mtl
o Text_CUText
v 0.221489 8.731908 -0.757556
v 0.221489 8.049908 -0.757556
v 0.221489 8.049908 -0.855556
v 0.221489 8.344908 -0.855556
v 0.221489 8.344908 -0.957556
v 0.221489 8.346622 -0.995273
v 0.221489 8.351625 -1.029454
v 0.221489 8.359705 -1.060150
v 0.221489 8.370648 -1.087408
v 0.221489 8.384245 -1.111277
v 0.221489 8.400283 -1.131806
v 0.221489 8.418550 -1.149044
v 0.221489 8.438833 -1.163038
v 0.221489 8.460923 -1.173838
v 0.221489 8.484607 -1.181492
v 0.221489 8.509672 -1.186048
v 0.221489 8.535908 -1.187556
v 0.221489 8.562451 -1.186132
v 0.221489 8.587926 -1.181829
v 0.221489 8.612095 -1.174603
v 0.221489 8.634723 -1.164408
v 0.221489 8.655572 -1.151199
v 0.221489 8.674408 -1.134931
v 0.221489 8.690993 -1.115559
v 0.221489 8.705093 -1.093037
v 0.221489 8.716471 -1.067321
v 0.221489 8.724890 -1.038366
v 0.221489 8.730114 -1.006126
v 0.221489 8.731908 -0.970556
v 0.221489 8.643908 -0.855556
v 0.221489 8.643908 -0.970556
v 0.221489 8.642817 -0.991535
v 0.221489 8.639676 -1.010052
v 0.221489 8.634689 -1.026228
v 0.221489 8.628056 -1.040186
v 0.221489 8.619978 -1.052046
v 0.221489 8.610658 -1.061931
v 0.221489 8.600296 -1.069962
v 0.221489 8.589092 -1.076260
v 0.221489 8.577251 -1.080947
v 0.221489 8.564973 -1.084144
v 0.221489 8.552458 -1.085974
v 0.221489 8.539907 -1.086556
v 0.221489 8.523518 -1.085589
v 0.221489 8.508370 -1.082737
v 0.221489 8.494501 -1.078072
v 0.221489 8.481945 -1.071667
v 0.221489 8.470736 -1.063596
v 0.221489 8.460908 -1.053931
v 0.221489 8.452497 -1.042745
v 0.221489 8.445538 -1.030112
v 0.221489 8.440064 -1.016103
v 0.221489 8.436111 -1.000792
v 0.221489 8.433715 -0.984253
v 0.221489 8.432908 -0.966556
v 0.221489 8.432908 -0.855556
v 0.221489 8.390907 0.090444
v 0.221489 8.345159 0.087540
v 0.221489 8.300746 0.078967
v 0.221489 8.258173 0.064928
v 0.221489 8.217945 0.045629
v 0.221489 8.180563 0.021274
v 0.221489 8.146533 -0.007931
v 0.221489 8.116356 -0.041782
v 0.221489 8.090537 -0.080075
v 0.221489 8.069580 -0.122603
v 0.221489 8.053987 -0.169163
v 0.221489 8.044261 -0.219549
v 0.221489 8.040908 -0.273556
v 0.221489 8.044280 -0.329343
v 0.221489 8.054056 -0.381098
v 0.221489 8.069720 -0.428666
v 0.221489 8.090759 -0.471890
v 0.221489 8.116660 -0.510614
v 0.221489 8.146908 -0.544681
v 0.221489 8.180988 -0.573937
v 0.221489 8.218390 -0.598223
v 0.221489 8.258595 -0.617385
v 0.221489 8.301093 -0.631265
v 0.221489 8.345368 -0.639708
v 0.221489 8.390907 -0.642556
v 0.221489 8.437708 -0.639632
v 0.221489 8.482806 -0.630996
v 0.221489 8.525751 -0.616853
v 0.221489 8.566093 -0.597408
v 0.221489 8.603378 -0.572866
v 0.221489 8.637157 -0.543431
v 0.221489 8.666979 -0.509309
v 0.221489 8.692389 -0.470704
v 0.221489 8.712939 -0.427822
v 0.221489 8.728176 -0.380867
v 0.221489 8.737650 -0.330043
v 0.221489 8.740908 -0.275556
v 0.221489 8.737631 -0.221929
v 0.221489 8.728106 -0.171709
v 0.221489 8.712798 -0.125134
v 0.221489 8.692167 -0.082445
v 0.221489 8.666675 -0.043881
v 0.221489 8.636783 -0.009681
v 0.221489 8.602953 0.019914
v 0.221489 8.565649 0.044666
v 0.221489 8.525330 0.064334
v 0.221489 8.482459 0.078680
v 0.221489 8.437497 0.087463
v 0.221489 8.390908 -0.010556
v 0.221489 8.427534 -0.012868
v 0.221489 8.462251 -0.019630
v 0.221489 8.494814 -0.030587
v 0.221489 8.524981 -0.045482
v 0.221489 8.552511 -0.064057
v 0.221489 8.577158 -0.086056
v 0.221489 8.598680 -0.111222
v 0.221489 8.616834 -0.139297
v 0.221489 8.631376 -0.170025
v 0.221489 8.642065 -0.203149
v 0.221489 8.648657 -0.238412
v 0.221489 8.650908 -0.275556
v 0.221489 8.648657 -0.312930
v 0.221489 8.642065 -0.348385
v 0.221489 8.631376 -0.381666
v 0.221489 8.616834 -0.412519
v 0.221489 8.598680 -0.440692
v 0.221489 8.577158 -0.465931
v 0.221489 8.552511 -0.487983
v 0.221489 8.524982 -0.506593
v 0.221489 8.494814 -0.521509
v 0.221489 8.462251 -0.532478
v 0.221489 8.427534 -0.539244
v 0.221489 8.390907 -0.541556
v 0.221489 8.354491 -0.539244
v 0.221489 8.319912 -0.532477
v 0.221489 8.287423 -0.521509
v 0.221489 8.257278 -0.506593
v 0.221489 8.229730 -0.487983
v 0.221489 8.205033 -0.465931
v 0.221489 8.183439 -0.440692
v 0.221489 8.165204 -0.412519
v 0.221489 8.150579 -0.381665
v 0.221489 8.139820 -0.348385
v 0.221489 8.133178 -0.312930
v 0.221489 8.130908 -0.275556
v 0.221489 8.133178 -0.238412
v 0.221489 8.139820 -0.203149
v 0.221489 8.150579 -0.170025
v 0.221489 8.165204 -0.139297
v 0.221489 8.183439 -0.111222
v 0.221489 8.205032 -0.086056
v 0.221489 8.229731 -0.064057
v 0.221489 8.257278 -0.045482
v 0.221489 8.287423 -0.030587
v 0.221489 8.319912 -0.019630
v 0.221489 8.354492 -0.012868
v 0.221489 8.731908 0.152444
v 0.221489 8.731908 0.722444
v 0.221489 8.643908 0.722444
v 0.221489 8.643908 0.486444
v 0.221489 8.049908 0.486444
v 0.221489 8.049908 0.388444
v 0.221489 8.643908 0.388444
v 0.221489 8.643908 0.152444
v 0.221489 8.692907 0.798444
v 0.221489 8.700575 0.810525
v 0.221489 8.707575 0.822759
v 0.221489 8.713907 0.835131
v 0.221489 8.719574 0.847629
v 0.221489 8.724574 0.860238
v 0.221489 8.728908 0.872944
v 0.221489 8.732574 0.885733
v 0.221489 8.735575 0.898592
v 0.221489 8.737907 0.911506
v 0.221489 8.739574 0.924462
v 0.221489 8.740575 0.937446
v 0.221489 8.740908 0.950444
v 0.221489 8.739447 0.980775
v 0.221489 8.735134 1.009180
v 0.221489 8.728080 1.035522
v 0.221489 8.718390 1.059666
v 0.221489 8.706171 1.081477
v 0.221489 8.691533 1.100819
v 0.221489 8.674582 1.117557
v 0.221489 8.655426 1.131555
v 0.221489 8.634173 1.142678
v 0.221489 8.610931 1.150791
v 0.221489 8.585807 1.155758
v 0.221489 8.558908 1.157444
v 0.221489 8.515549 1.151639
v 0.221489 8.478288 1.135592
v 0.221489 8.446095 1.111350
v 0.221489 8.417945 1.080962
v 0.221489 8.392808 1.046478
v 0.221489 8.369658 1.009944
v 0.221489 8.347466 0.973410
v 0.221489 8.325204 0.938925
v 0.221489 8.301846 0.908538
v 0.221489 8.276361 0.884296
v 0.221489 8.247725 0.868248
v 0.221489 8.214908 0.862444
v 0.221489 8.205233 0.863176
v 0.221489 8.195343 0.865388
v 0.221489 8.185439 0.869100
v 0.221489 8.175722 0.874333
v 0.221489 8.166395 0.881107
v 0.221489 8.157658 0.889444
v 0.221489 8.149713 0.899364
v 0.221489 8.142759 0.910888
v 0.221489 8.137001 0.924038
v 0.221489 8.132639 0.938833
v 0.221489 8.129874 0.955294
v 0.221489 8.128908 0.973444
v 0.221489 8.129634 0.990105
v 0.221489 8.131797 1.006569
v 0.221489 8.135377 1.022803
v 0.221489 8.140352 1.038777
v 0.221489 8.146703 1.054460
v 0.221489 8.154408 1.069819
v 0.221489 8.163446 1.084824
v 0.221489 8.173797 1.099444
v 0.221489 8.185439 1.113647
v 0.221489 8.198352 1.127402
v 0.221489 8.212516 1.140678
v 0.221489 8.227908 1.153444
v 0.221489 8.103908 1.153444
v 0.221489 8.093636 1.139125
v 0.221489 8.084311 1.124643
v 0.221489 8.075923 1.109960
v 0.221489 8.068463 1.095036
v 0.221489 8.061920 1.079836
v 0.221489 8.056283 1.064319
v 0.221489 8.051541 1.048448
v 0.221489 8.047686 1.032184
v 0.221489 8.044704 1.015491
v 0.221489 8.042588 0.998328
v 0.221489 8.041327 0.980659
v 0.221489 8.040908 0.962444
v 0.221489 8.042504 0.935578
v 0.221489 8.047181 0.910101
v 0.221489 8.054767 0.886194
v 0.221489 8.065093 0.864036
v 0.221489 8.077989 0.843809
v 0.221489 8.093283 0.825694
v 0.221489 8.110806 0.809870
v 0.221489 8.130389 0.796518
v 0.221489 8.151861 0.785819
v 0.221489 8.175052 0.777953
v 0.221489 8.199790 0.773101
v 0.221489 8.225907 0.771444
v 0.221489 8.275799 0.777248
v 0.221489 8.317787 0.793296
v 0.221489 8.353095 0.817537
v 0.221489 8.382945 0.847925
v 0.221489 8.408558 0.882410
v 0.221489 8.431158 0.918944
v 0.221489 8.451965 0.955477
v 0.221489 8.472204 0.989962
v 0.221489 8.493095 1.020350
v 0.221489 8.515862 1.044592
v 0.221489 8.541725 1.060639
v 0.221489 8.571908 1.066444
v 0.221489 8.583585 1.065522
v 0.221489 8.594575 1.062819
v 0.221489 8.604815 1.058428
v 0.221489 8.614241 1.052444
v 0.221489 8.622793 1.044959
v 0.221489 8.630407 1.036069
v 0.221489 8.637022 1.025866
v 0.221489 8.642574 1.014444
v 0.221489 8.647001 1.001897
v 0.221489 8.650241 0.988319
v 0.221489 8.652231 0.973803
v 0.221489 8.652907 0.958444
v 0.221489 8.652561 0.946740
v 0.221489 8.651468 0.934648
v 0.221489 8.649549 0.922194
v 0.221489 8.646723 0.909407
v 0.221489 8.642911 0.896314
v 0.221489 8.638033 0.882944
v 0.221489 8.632010 0.869323
v 0.221489 8.624760 0.855481
v 0.221489 8.616204 0.841444
v 0.221489 8.606264 0.827240
v 0.221489 8.594859 0.812897
v 0.221489 8.581908 0.798444
v 0.031489 8.429729 1.954230
v 0.031489 6.697679 0.954229
v 0.031489 6.697679 -1.045771
v 0.031489 8.429729 -2.045770
v 0.031489 10.161780 -1.045770
v 0.031489 10.161780 0.954229
v 0.211489 8.429729 1.954230
v 0.211489 6.697679 0.954229
v 0.211489 6.697679 -1.045771
v 0.211489 8.429729 -2.045770
v 0.211489 10.161780 -1.045770
v 0.211489 10.161780 0.954229
v 0.211489 8.429729 1.885948
v 0.211489 6.756812 0.920089
v 0.211489 6.756813 -1.011630
v 0.211489 8.429729 -1.977489
v 0.211489 10.102647 -1.011629
v 0.211489 10.102647 0.920089
v 0.187650 10.037794 -0.012469
v 0.187649 0.037794 -0.012469
v 0.186689 10.037794 -0.022224
v 0.186688 0.037794 -0.022224
v 0.183844 10.037794 -0.031604
v 0.183843 0.037794 -0.031604
v 0.179224 10.037794 -0.040248
v 0.179223 0.037794 -0.040248
v 0.173005 10.037794 -0.047825
v 0.173005 0.037794 -0.047825
v 0.165429 10.037794 -0.054043
v 0.165428 0.037794 -0.054043
v 0.156784 10.037794 -0.058663
v 0.156783 0.037794 -0.058663
v 0.147405 10.037794 -0.061509
v 0.147404 0.037794 -0.061509
v 0.137650 10.037794 -0.062469
v 0.137649 0.037794 -0.062469
v 0.127896 10.037794 -0.061509
v 0.127895 0.037794 -0.061509
v 0.118516 10.037794 -0.058663
v 0.118515 0.037794 -0.058663
v 0.109872 10.037794 -0.054043
v 0.109871 0.037794 -0.054043
v 0.102295 10.037794 -0.047825
v 0.102294 0.037794 -0.047825
v 0.096077 10.037794 -0.040248
v 0.096076 0.037794 -0.040248
v 0.091456 10.037794 -0.031604
v 0.091455 0.037794 -0.031604
v 0.088611 10.037794 -0.022224
v 0.088610 0.037794 -0.022224
v 0.087650 10.037794 -0.012469
v 0.087649 0.037794 -0.012469
v 0.088611 10.037794 -0.002715
v 0.088610 0.037794 -0.002715
v 0.091456 10.037794 0.006665
v 0.091455 0.037794 0.006665
v 0.096077 10.037794 0.015309
v 0.096076 0.037794 0.015309
v 0.102295 10.037794 0.022886
v 0.102294 0.037794 0.022886
v 0.109872 10.037794 0.029104
v 0.109871 0.037794 0.029104
v 0.118516 10.037794 0.033725
v 0.118515 0.037794 0.033725
v 0.127896 10.037794 0.036570
v 0.127895 0.037794 0.036570
v 0.137650 10.037794 0.037531
v 0.137649 0.037794 0.037531
v 0.147405 10.037794 0.036570
v 0.147404 0.037794 0.036570
v 0.156784 10.037794 0.033725
v 0.156783 0.037794 0.033725
v 0.165429 10.037794 0.029104
v 0.165428 0.037794 0.029104
v 0.173006 10.037794 0.022886
v 0.173005 0.037794 0.022886
v 0.179224 10.037794 0.015309
v 0.179223 0.037794 0.015309
v 0.183844 10.037794 0.006665
v 0.183843 0.037794 0.006665
v 0.186689 10.037794 -0.002715
v 0.186688 0.037794 -0.002715
vn 1.0000 -0.0000 -0.0000
vn 1.0000 -0.0001 -0.0000
vn 0.0000 0.0000 1.0000
vn -1.0000 0.0000 0.0000
vn 0.0000 1.0000 -0.0000
vn 0.0000 -0.5000 -0.8660
vn 0.0000 -0.5000 0.8660
vn 0.0000 0.5000 0.8660
vn 0.0000 0.5000 -0.8660
vn 0.0000 -1.0000 -0.0000
vn 0.9952 -0.0000 -0.0980
vn 0.9569 -0.0000 -0.2903
vn 0.8819 -0.0000 -0.4714
vn 0.7730 -0.0000 -0.6344
vn 0.6344 -0.0000 -0.7730
vn 0.4714 -0.0000 -0.8819
vn 0.2903 -0.0000 -0.9569
vn 0.0980 -0.0000 -0.9952
vn -0.0980 0.0000 -0.9952
vn -0.2903 0.0000 -0.9569
vn -0.4714 0.0000 -0.8819
vn -0.6344 0.0000 -0.7730
vn -0.7730 0.0000 -0.6344
vn -0.8819 0.0000 -0.4714
vn -0.9569 0.0000 -0.2903
vn -0.9952 0.0000 -0.0980
vn -0.9952 0.0000 0.0980
vn -0.9569 0.0000 0.2903
vn -0.8819 0.0000 0.4714
vn -0.7730 0.0000 0.6344
vn -0.6344 0.0000 0.7730
vn -0.4714 0.0000 0.8819
vn -0.2903 0.0000 0.9569
vn -0.0980 0.0000 0.9952
vn 0.0980 -0.0000 0.9952
vn 0.2903 -0.0000 0.9569
vn 0.4714 -0.0000 0.8819
vn 0.6344 -0.0000 0.7730
vn 0.7730 -0.0000 0.6344
vn 0.8819 -0.0000 0.4714
vn 0.9569 -0.0000 0.2903
vn 0.9952 -0.0000 0.0980
usemtl white.001
s off
f 2//1 30//1 1//1
f 30//1 29//1 1//1
f 30//1 28//1 29//1
f 30//1 27//1 28//1
f 30//1 26//1 27//1
f 30//1 25//1 26//1
f 30//1 24//1 25//1
f 30//1 23//1 24//1
f 30//1 22//1 23//1
f 30//1 31//1 22//1
f 31//1 21//1 22//1
f 2//1 56//1 30//1
f 32//1 21//1 31//1
f 33//1 21//1 32//1
f 34//1 21//1 33//1
f 34//1 20//1 21//1
f 35//1 20//1 34//1
f 36//1 20//1 35//1
f 37//1 20//1 36//1
f 37//1 19//1 20//1
f 38//1 19//1 37//1
f 39//1 19//1 38//1
f 40//1 19//1 39//1
f 40//1 18//1 19//1
f 41//1 18//1 40//1
f 42//1 18//1 41//1
f 42//1 17//1 18//1
f 43//1 17//1 42//1
f 44//1 17//1 43//1
f 44//1 16//1 17//1
f 45//1 16//1 44//1
f 45//1 15//1 16//1
f 46//1 15//1 45//1
f 47//1 15//1 46//1
f 47//1 14//1 15//1
f 48//1 14//1 47//1
f 49//1 14//1 48//1
f 49//1 13//1 14//1
f 50//1 13//1 49//1
f 51//1 13//1 50//1
f 52//1 13//1 51//1
f 53//1 13//1 52//1
f 53//1 12//1 13//1
f 54//1 12//1 53//1
f 55//1 12//1 54//1
f 2//1 4//1 56//1
f 4//1 55//1 56//1
f 4//1 12//1 55//1
f 4//1 11//1 12//1
f 4//1 10//1 11//1
f 4//1 9//1 10//1
f 4//1 8//1 9//1
f 4//1 7//1 8//1
f 4//1 6//1 7//1
f 4//1 5//1 6//1
f 2//1 3//1 4//1
f 94//1 92//1 93//1
f 94//1 91//1 92//1
f 95//1 91//1 94//1
f 95//1 90//1 91//1
f 96//1 90//1 95//1
f 96//1 89//1 90//1
f 97//1 89//1 96//1
f 97//1 88//1 89//1
f 98//1 88//1 97//1
f 98//1 87//1 88//1
f 99//1 117//1 98//1
f 117//1 87//1 98//1
f 99//2 116//2 117//2
f 118//1 87//1 117//1
f 119//1 87//1 118//1
f 99//1 115//1 116//1
f 120//1 87//1 119//1
f 99//1 114//1 115//1
f 120//1 86//1 87//1
f 100//1 114//1 99//1
f 121//1 86//1 120//1
f 100//1 113//1 114//1
f 122//1 86//1 121//1
f 100//1 112//1 113//1
f 122//1 85//1 86//1
f 101//1 112//1 100//1
f 123//1 85//1 122//1
f 101//1 111//1 112//1
f 124//1 85//1 123//1
f 101//1 110//1 111//1
f 124//1 84//1 85//1
f 102//1 110//1 101//1
f 125//1 84//1 124//1
f 102//1 109//1 110//1
f 125//1 83//1 84//1
f 103//1 109//1 102//1
f 126//1 83//1 125//1
f 103//1 108//1 109//1
f 127//1 83//1 126//1
f 103//1 107//1 108//1
f 127//1 82//1 83//1
f 104//1 107//1 103//1
f 128//1 82//1 127//1
f 104//1 106//1 107//1
f 128//1 81//1 82//1
f 57//1 106//1 104//1
f 129//1 81//1 128//1
f 57//1 105//1 106//1
f 58//1 105//1 57//1
f 58//1 152//1 105//1
f 130//1 81//1 129//1
f 130//1 80//1 81//1
f 58//1 151//1 152//1
f 131//1 80//1 130//1
f 131//1 79//1 80//1
f 59//1 151//1 58//1
f 59//1 150//1 151//1
f 132//1 79//1 131//1
f 132//1 78//1 79//1
f 60//1 150//1 59//1
f 133//1 78//1 132//1
f 60//1 149//1 150//1
f 133//1 77//1 78//1
f 61//1 149//1 60//1
f 134//1 77//1 133//1
f 61//1 148//1 149//1
f 135//1 77//1 134//1
f 61//1 147//1 148//1
f 135//1 76//1 77//1
f 62//1 147//1 61//1
f 136//1 76//1 135//1
f 62//1 146//1 147//1
f 137//1 76//1 136//1
f 62//1 145//1 146//1
f 137//1 75//1 76//1
f 63//1 145//1 62//1
f 138//1 75//1 137//1
f 63//1 144//1 145//1
f 139//1 75//1 138//1
f 63//1 143//1 144//1
f 139//1 74//1 75//1
f 64//1 143//1 63//1
f 140//1 74//1 139//1
f 64//1 142//1 143//1
f 141//1 74//1 140//1
f 64//1 141//1 142//1
f 64//1 74//1 141//1
f 64//1 73//1 74//1
f 65//1 73//1 64//1
f 65//1 72//1 73//1
f 66//1 72//1 65//1
f 66//1 71//1 72//1
f 67//1 71//1 66//1
f 67//1 70//1 71//1
f 68//1 70//1 67//1
f 68//1 69//1 70//1
f 155//1 153//1 154//1
f 155//1 160//1 153//1
f 156//3 160//3 155//3
f 157//1 159//1 156//1
f 159//3 160//3 156//3
f 157//1 158//1 159//1
f 174//1 172//1 173//1
f 174//1 171//1 172//1
f 174//1 170//1 171//1
f 175//1 170//1 174//1
f 175//1 169//1 170//1
f 175//1 168//1 169//1
f 176//1 168//1 175//1
f 176//1 167//1 168//1
f 176//1 166//1 167//1
f 177//1 166//1 176//1
f 177//1 165//1 166//1
f 177//1 164//1 165//1
f 178//1 164//1 177//1
f 178//1 163//1 164//1
f 178//1 162//1 163//1
f 179//1 162//1 178//1
f 179//1 161//1 162//1
f 179//1 274//1 161//1
f 274//1 275//1 161//1
f 275//1 276//1 161//1
f 276//1 277//1 161//1
f 277//1 278//1 161//1
f 278//1 279//1 161//1
f 279//1 280//1 161//1
f 280//1 281//1 161//1
f 281//1 282//1 161//1
f 180//1 272//1 179//1
f 272//1 273//1 179//1
f 273//1 274//1 179//1
f 181//1 270//1 180//1
f 270//1 271//1 180//1
f 271//1 272//1 180//1
f 182//1 269//1 181//1
f 269//1 270//1 181//1
f 182//1 268//1 269//1
f 182//1 267//1 268//1
f 182//1 266//1 267//1
f 182//1 265//1 266//1
f 182//1 264//1 265//1
f 183//1 264//1 182//1
f 183//1 263//1 264//1
f 183//1 262//1 263//1
f 183//1 261//1 262//1
f 184//1 261//1 183//1
f 184//1 260//1 261//1
f 184//1 259//1 260//1
f 185//1 259//1 184//1
f 185//1 258//1 259//1
f 185//1 257//1 258//1
f 186//1 257//1 185//1
f 186//1 256//1 257//1
f 186//1 255//1 256//1
f 187//1 255//1 186//1
f 187//1 254//1 255//1
f 188//1 254//1 187//1
f 188//1 253//1 254//1
f 188//1 252//1 253//1
f 189//1 252//1 188//1
f 189//1 251//1 252//1
f 190//1 251//1 189//1
f 190//1 250//1 251//1
f 191//1 250//1 190//1
f 191//1 249//1 250//1
f 192//1 249//1 191//1
f 192//1 248//1 249//1
f 193//1 248//1 192//1
f 194//1 248//1 193//1
f 194//1 247//1 248//1
f 195//1 247//1 194//1
f 196//1 247//1 195//1
f 196//1 246//1 247//1
f 197//1 246//1 196//1
f 222//1 220//1 221//1
f 197//1 245//1 246//1
f 198//1 245//1 197//1
f 222//1 219//1 220//1
f 199//1 245//1 198//1
f 199//1 244//1 245//1
f 222//1 218//1 219//1
f 200//1 244//1 199//1
f 222//1 217//1 218//1
f 201//1 244//1 200//1
f 202//1 244//1 201//1
f 202//1 243//1 244//1
f 222//1 216//1 217//1
f 203//1 243//1 202//1
f 222//1 215//1 216//1
f 204//1 243//1 203//1
f 222//1 214//1 215//1
f 204//1 242//1 243//1
f 205//1 242//1 204//1
f 222//1 213//1 214//1
f 206//1 242//1 205//1
f 222//1 212//1 213//1
f 207//1 242//1 206//1
f 222//1 211//1 212//1
f 208//1 242//1 207//1
f 222//1 210//1 211//1
f 208//1 241//1 242//1
f 209//1 241//1 208//1
f 222//1 209//1 210//1
f 222//1 241//1 209//1
f 222//1 240//1 241//1
f 223//1 240//1 222//1
f 224//1 240//1 223//1
f 224//1 239//1 240//1
f 225//1 239//1 224//1
f 225//1 238//1 239//1
f 226//1 238//1 225//1
f 227//1 238//1 226//1
f 227//1 237//1 238//1
f 228//1 237//1 227//1
f 229//1 237//1 228//1
f 229//1 236//1 237//1
f 230//1 236//1 229//1
f 231//1 236//1 230//1
f 231//1 235//1 236//1
f 232//1 235//1 231//1
f 233//1 235//1 232//1
f 233//1 234//1 235//1
usemtl white
f 284//4 283//4 288//4 287//4 286//4 285//4
f 289//1 290//1 296//1 295//1
f 287//5 288//5 294//5 293//5
f 285//6 286//6 292//6 291//6
f 283//7 284//7 290//7 289//7
f 288//8 283//8 289//8 294//8
f 286//9 287//9 293//9 292//9
f 284//10 285//10 291//10 290//10
f 294//1 289//1 295//1 300//1
f 292//1 293//1 299//1 298//1
f 290//1 291//1 297//1 296//1
f 293//1 294//1 300//1 299//1
f 291//1 292//1 298//1 297//1
usemtl red
f 296//1 297//1 298//1 299//1 300//1 295//1
usemtl Material.001
f 301//11 302//11 304//11 303//11
f 303//12 304//12 306//12 305//12
f 305//13 306//13 308//13 307//13
f 307//14 308//14 310//14 309//14
f 309//15 310//15 312//15 311//15
f 311//16 312//16 314//16 313//16
f 313//17 314//17 316//17 315//17
f 315//18 316//18 318//18 317//18
f 317//19 318//19 320//19 319//19
f 319//20 320//20 322//20 321//20
f 321//21 322//21 324//21 323//21
f 323//22 324//22 326//22 325//22
f 325//23 326//23 328//23 327//23
f 327//24 328//24 330//24 329//24
f 329//25 330//25 332//25 331//25
f 331//26 332//26 334//26 333//26
f 333//27 334//27 336//27 335//27
f 335//28 336//28 338//28 337//28
f 337//29 338//29 340//29 339//29
f 339//30 340//30 342//30 341//30
f 341//31 342//31 344//31 343//31
f 343//32 344//32 346//32 345//32
f 345//33 346//33 348//33 347//33
f 347//34 348//34 350//34 349//34
f 349//35 350//35 352//35 351//35
f 351//36 352//36 354//36 353//36
f 353//37 354//37 356//37 355//37
f 355//38 356//38 358//38 357//38
f 357//39 358//39 360//39 359//39
f 359//40 360//40 362//40 361//40
f 304//10 302//10 364//10 362//10 360//10 358//10 356//10 354//10 352//10 350//10 348//10 346//10 344//10 342//10 340//10 338//10 336//10 334//10 332//10 330//10 328//10 326//10 324//10 322//10 320//10 318//10 316//10 314//10 312//10 310//10 308//10 306//10
f 361//41 362//41 364//41 363//41
f 363//42 364//42 302//42 301//42
f 301//5 303//5 305//5 307//5 309//5 311//5 313//5 315//5 317//5 319//5 321//5 323//5 325//5 327//5 329//5 331//5 333//5 335//5 337//5 339//5 341//5 343//5 345//5 347//5 349//5 351//5 353//5 355//5 357//5 359//5 361//5 363//5
